<svg width="36" height="36" fill="none" xmlns="http://www.w3.org/2000/svg"><path fill-rule="evenodd" clip-rule="evenodd" d="M10.58.108C12.497.02 13.11 0 18 0c4.89 0 5.502.021 7.42.108 1.917.087 3.226.393 4.372.836a8.855 8.855 0 013.187 2.078 8.794 8.794 0 012.075 3.186c.445 1.146.75 2.455.838 4.37C35.98 12.5 36 13.111 36 18c0 4.89-.021 5.502-.108 7.42-.087 1.915-.393 3.224-.838 4.37a8.831 8.831 0 01-2.075 3.19 8.827 8.827 0 01-3.187 2.074c-1.146.445-2.455.75-4.37.838C23.502 35.98 22.89 36 18 36s-5.502-.021-7.42-.108c-1.915-.087-3.225-.393-4.37-.838a8.832 8.832 0 01-3.19-2.075 8.824 8.824 0 01-2.076-3.187c-.443-1.146-.748-2.455-.836-4.37C.02 23.5 0 22.889 0 18c0-4.89.021-5.502.108-7.42.087-1.917.393-3.226.836-4.372a8.83 8.83 0 012.078-3.187A8.823 8.823 0 016.208.944C7.354.501 8.663.196 10.578.108h.001zm14.694 3.24c-1.899-.087-2.468-.105-7.274-.105s-5.376.018-7.274.105c-1.755.08-2.708.373-3.343.62-.84.327-1.44.715-2.07 1.345a5.583 5.583 0 00-1.345 2.07c-.247.635-.54 1.588-.62 3.343-.087 1.898-.105 2.468-.105 7.274s.018 5.375.105 7.274c.08 1.755.373 2.708.62 3.343.288.78.748 1.489 1.345 2.07a5.587 5.587 0 002.07 1.345c.635.247 1.588.54 3.343.62 1.898.087 2.466.105 7.274.105s5.375-.018 7.274-.105c1.755-.08 2.708-.373 3.343-.62.84-.327 1.44-.715 2.07-1.345a5.587 5.587 0 001.345-2.07c.247-.635.54-1.588.62-3.343.087-1.899.105-2.468.105-7.274s-.018-5.376-.105-7.274c-.08-1.755-.373-2.708-.62-3.343-.327-.84-.715-1.44-1.345-2.07a5.585 5.585 0 00-2.07-1.345c-.635-.247-1.588-.54-3.343-.62zm-9.573 20.2a6.004 6.004 0 006.545-9.794 6.007 6.007 0 10-6.545 9.795zm-4.243-12.09a9.252 9.252 0 1113.084 13.085 9.252 9.252 0 01-13.084-13.085zm17.846-1.332a2.188 2.188 0 10-3.002-3.183 2.188 2.188 0 003.002 3.183z" fill="#171717"/></svg>