<svg width="54" height="34" fill="none" xmlns="http://www.w3.org/2000/svg"><path d="M1 17c0 4.229 2.725 8.205 7.44 11.175C13.145 31.135 19.704 33 27 33c7.297 0 13.856-1.864 18.56-4.825C50.274 25.205 53 21.229 53 17c0-4.229-2.725-8.205-7.44-11.175C40.855 2.865 34.296 1 27 1 19.703 1 13.144 2.864 8.44 5.825 3.726 8.795 1 12.771 1 17z" fill="#fff"/><path d="M1 17c0 4.229 2.725 8.205 7.44 11.175C13.145 31.135 19.704 33 27 33c7.297 0 13.856-1.864 18.56-4.825C50.274 25.205 53 21.229 53 17c0-4.229-2.725-8.205-7.44-11.175C40.855 2.865 34.296 1 27 1 19.703 1 13.144 2.864 8.44 5.825 3.726 8.795 1 12.771 1 17z" fill="#fff"/><path d="M1 17c0 4.229 2.725 8.205 7.44 11.175C13.145 31.135 19.704 33 27 33c7.297 0 13.856-1.864 18.56-4.825C50.274 25.205 53 21.229 53 17c0-4.229-2.725-8.205-7.44-11.175C40.855 2.865 34.296 1 27 1 19.703 1 13.144 2.864 8.44 5.825 3.726 8.795 1 12.771 1 17z" stroke="#000" stroke-width="2"/><path d="M18.634 9.067c1.825 0 15.718 5.54 22.436 8.31l-22.436 7.556" stroke="#000" stroke-width="2"/></svg>