<svg width="172" height="169" fill="none" xmlns="http://www.w3.org/2000/svg"><path d="M12.222 90.185a.458.458 0 01-.134.165.553.553 0 01-.424.108.62.62 0 01-.393-.241.615.615 0 01-.126-.369.744.744 0 01.095-.398c.282-.505.532-1.06.75-1.663.219-.603.405-1.222.559-1.857a24.264 24.264 0 00.543-3.51.835.835 0 01.343-.653.832.832 0 01.637-.173c.727.081 1.519.14 2.373.176.855.035 1.719.03 2.591-.015.874-.06 1.691-.177 2.45-.35a.665.665 0 01.385.023.64.64 0 01.337.224.562.562 0 01.13.426.505.505 0 01-.19.352.46.46 0 01-.194.09 16.18 16.18 0 01-1.864.32c-.671.078-1.355.131-2.05.16a28.18 28.18 0 01-1.973 0 20.074 20.074 0 01-1.704-.151c-.066-.016-.102-.002-.108.043-.013.416-.069.934-.167 1.552-.105.61-.25 1.264-.434 1.963a26.88 26.88 0 01-.648 2.028c-.24.662-.502 1.245-.784 1.75zm6.811-5.423l-3.985 3.113a.6.6 0 01-.427.13.588.588 0 01-.405-.231.535.535 0 01-.117-.436.569.569 0 01.219-.395l3.985-3.113a.57.57 0 01.437-.118c.158.012.29.085.395.22a.586.586 0 01.127.448.598.598 0 01-.229.382zm1.83 8.253a.3.3 0 01-.066.071.3.3 0 01-.066.072.582.582 0 01-.446.105.582.582 0 01-.427-.234.55.55 0 01-.116-.356.675.675 0 01.114-.374c.603-.89 1.006-1.82 1.208-2.79.211-.977.248-1.9.11-2.766-.012-.085-.052-.102-.119-.05l-5.562 4.346a.57.57 0 01-.436.118.57.57 0 01-.395-.22.535.535 0 01-.118-.435.569.569 0 01.22-.395l6.242-4.877a.697.697 0 01.532-.152.61.61 0 01.45.237.686.686 0 01.11.219c.22.695.335 1.396.347 2.104a8.859 8.859 0 01-.192 2.038 10.585 10.585 0 01-.59 1.841 8.436 8.436 0 01-.8 1.498zm5.291-19.514l6.727-3.711a.89.89 0 01.728-.073.888.888 0 01.578.448l5.265 9.516a.886.886 0 01.072.727.887.887 0 01-.449.577l-6.727 3.712a.94.94 0 01-.742.08.913.913 0 01-.564-.456l-5.264-9.516a.911.911 0 01-.087-.72.939.939 0 01.463-.584zm9.089 1.25c.056-.03.068-.074.037-.13l-1.982-3.582c-.03-.056-.074-.068-.13-.038l-6.139 3.388c-.056.03-.069.074-.038.13l1.982 3.582c.031.056.075.069.13.038l6.14-3.387zm-5.566 4.423c-.056.031-.069.075-.038.13l2.3 4.157c.03.056.074.069.13.038l6.139-3.387c.056-.031.069-.075.038-.13l-2.3-4.157c-.03-.056-.075-.069-.13-.038l-6.14 3.387zm21.197-4.344a.611.611 0 01-.48.038.761.761 0 01-.373-.323.628.628 0 01-.028-.45.602.602 0 01.29-.377c.878-.489 1.532-1.015 1.963-1.58.437-.578.693-1.17.768-1.775.071-.616 0-1.22-.216-1.81a3.271 3.271 0 00-1.047-1.474 3.512 3.512 0 00-1.642-.766c-.614-.128-1.245-.081-1.89.142-.08.029-.116.087-.107.175.15 1.034.227 2.044.233 3.028.013.97-.05 1.861-.187 2.67-.137.81-.35 1.489-.64 2.036-.288.547-.659.903-1.11 1.066a1.52 1.52 0 01-.363.08c-.522.065-.992-.087-1.41-.457-.412-.383-.733-.89-.963-1.522a6.332 6.332 0 01-.355-1.912 6.61 6.61 0 01.283-2.127c.3-1.016.797-1.866 1.492-2.549a6.548 6.548 0 012.35-1.5 5.852 5.852 0 012.153-.355 4.98 4.98 0 012.085.485c.657.306 1.215.779 1.674 1.417.266.357.48.756.64 1.197a4.99 4.99 0 01.293 1.697 4.993 4.993 0 01-.352 1.794c-.227.593-.593 1.163-1.099 1.709-.499.533-1.153 1.014-1.962 1.443zm-5.54-.711c.238.186.452.244.643.175.21-.077.388-.277.531-.601.15-.338.27-.756.361-1.254.102-.502.168-1.053.2-1.654.03-.601.036-1.21.016-1.826a16.78 16.78 0 00-.148-1.767l-.006-.015c-.025-.07-.098-.083-.219-.04a.263.263 0 00-.07.043.469.469 0 00-.1.053 4.51 4.51 0 00-1.31 1.36 4.906 4.906 0 00-.64 1.61 6.402 6.402 0 00-.115 1.607c.041.518.133.973.275 1.363.156.431.35.746.582.946zm14.377-13.562l2.864-.618c1.335-.288 2.444-.21 3.326.231.88.432 1.437 1.19 1.671 2.273.172.792.125 1.484-.14 2.075-.268.582-.694 1.06-1.278 1.438-.585.376-1.273.65-2.066.822l-2.223.48c-.094.02-.13.077-.11.17l.713 3.298c.02.094.078.13.172.11a7.12 7.12 0 01.412-.138l.416-.122a.537.537 0 01.488.058.632.632 0 01.285.413.612.612 0 01-.093.478.536.536 0 01-.42.254 34.94 34.94 0 01-.827.113 14.883 14.883 0 00-1.299.28 34.1 34.1 0 01-.753.228.58.58 0 01-.504-.055.614.614 0 01-.282-.397.631.631 0 01.09-.493.58.58 0 01.435-.258c.164-.002.344-.025.542-.068l.032-.007c.073-.015.1-.065.082-.148l-1.961-9.065c-.018-.083-.064-.117-.137-.1a2.193 2.193 0 00-.503.173.648.648 0 01-.534-.048.625.625 0 01-.305-.425.643.643 0 01.098-.528.647.647 0 01.467-.265c.216-.014.442-.03.678-.048.234-.029.455-.065.664-.11zm1.726 5.402c.02.094.077.13.171.11l2.363-.51c.919-.198 1.596-.524 2.033-.978.445-.467.582-1.096.41-1.888-.124-.573-.356-.992-.697-1.256-.333-.277-.739-.435-1.217-.474a5.028 5.028 0 00-1.5.111l-2.362.51c-.094.02-.131.078-.11.171l.909 4.204zm13.468 2.67a.537.537 0 01.48.1c.154.11.243.255.265.435a.56.56 0 01-.15.47.581.581 0 01-.439.232c-.3.006-.584.015-.852.027a18.183 18.183 0 00-1.461.184c-.23.05-.486.11-.768.177a.63.63 0 01-.499-.114.58.58 0 01-.247-.42.631.631 0 01.133-.484.58.58 0 01.456-.219l.386-.016.417-.02.031-.004c.075-.01.106-.057.096-.141l-1.172-9.28c-.011-.085-.053-.123-.128-.113-.137.017-.28.04-.427.07a4.55 4.55 0 00-.39.097.659.659 0 01-.497-.098.632.632 0 01-.249-.436.631.631 0 01.133-.484.58.58 0 01.456-.22c.311-.006.595-.015.852-.026a15.653 15.653 0 001.446-.182c.24-.052.502-.111.784-.18a.537.537 0 01.48.101.61.61 0 01.265.434.607.607 0 01-.148.486.607.607 0 01-.44.217 2.148 2.148 0 00-.386.016l-.385.017-.032.004c-.074.009-.106.056-.095.14l1.172 9.28c.01.085.058.122.143.111.127-.016.253-.037.379-.063a5.73 5.73 0 01.391-.098zm13.48-2.892a.712.712 0 01.273.551.65.65 0 01-.1.387 5.899 5.899 0 01-1.93 1.803 5.359 5.359 0 01-2.589.737 5.405 5.405 0 01-2.238-.395 5.985 5.985 0 01-1.865-1.238 6.227 6.227 0 01-1.292-1.88 6.02 6.02 0 01-.52-2.303 5.95 5.95 0 01.377-2.331 6.03 6.03 0 011.173-1.94 5.632 5.632 0 011.784-1.351 5.404 5.404 0 012.21-.533c.8-.025 1.508.082 2.124.318a5.3 5.3 0 011.682 1.02c.22.196.418.414.597.654.178.24.272.503.28.79a.991.991 0 01-.266.713.934.934 0 01-.694.325.902.902 0 01-.714-.282 1.003 1.003 0 01-.293-.678.883.883 0 01.143-.533c.051-.087.044-.156-.022-.207a2.743 2.743 0 00-1.273-.744 4.783 4.783 0 00-1.527-.193c-.864.027-1.626.264-2.285.71a4.623 4.623 0 00-1.547 1.776c-.362.726-.529 1.541-.5 2.447.028.906.25 1.71.667 2.41.417.703.968 1.25 1.653 1.645a4.403 4.403 0 002.307.537 4.423 4.423 0 002.097-.577 4.33 4.33 0 001.508-1.47.54.54 0 01.456-.27.469.469 0 01.324.102zm14.107 3.114a.537.537 0 01.447.203c.126.14.181.3.164.48a.562.562 0 01-.249.427.58.58 0 01-.478.132 54.074 54.074 0 00-.854-.16 16.643 16.643 0 00-1.418-.132c-.236 0-.51.001-.82.004a.609.609 0 01-.447-.218.58.58 0 01-.15-.463.607.607 0 01.218-.43.588.588 0 01.446-.135c.096.01.201.03.316.062.127.022.242.044.348.064l.032.003c.053.005.086-.008.1-.039a.149.149 0 00-.02-.13l-2.655-4.984c-.045-.09-.108-.101-.19-.034l-2.077 1.59a.245.245 0 00-.096.167l-.263 2.818c-.01.095.034.148.13.157a6.796 6.796 0 01.93.022c.17.016.303.092.397.23a.568.568 0 01.137.43.56.56 0 01-.249.426.581.581 0 01-.479.132 43.88 43.88 0 00-.79-.153 14.698 14.698 0 00-1.322-.123c-.236-.001-.51 0-.82.004a.609.609 0 01-.447-.219.58.58 0 01-.15-.463.58.58 0 01.233-.428.559.559 0 01.478-.116l.554.083c.096.01.148-.029.156-.114l.866-9.282c.01-.106-.034-.152-.132-.14l-.546-.003a.607.607 0 01-.448-.202.631.631 0 01-.148-.48.631.631 0 01.234-.444.537.537 0 01.477-.116c.306.06.574.113.806.156a14.649 14.649 0 001.323.123c.236 0 .504-.002.805-.006a.537.537 0 01.447.202c.126.14.181.3.164.481a.608.608 0 01-.25.443.607.607 0 01-.477.116 5.37 5.37 0 00-.426-.088l-.428-.072c-.095-.009-.148.035-.156.13l-.425 4.554c-.006.063.006.107.036.131.041.015.085.003.132-.036l5.401-4.122c.035-.029.054-.06.057-.091.006-.064-.028-.099-.103-.106l-.417-.007a3.842 3.842 0 00-.371.014.659.659 0 01-.464-.204.632.632 0 01-.148-.48.631.631 0 01.234-.443.58.58 0 01.493-.115c.327.063.611.116.854.16a16.507 16.507 0 001.419.132c.246.001.52 0 .82-.004a.537.537 0 01.448.202c.115.14.165.3.148.48a.641.641 0 01-.217.429.556.556 0 01-.447.135l-.143-.013a.533.533 0 00-.126-.028l-.048-.005a.202.202 0 00-.15.05l-4.205 3.19c-.079.047-.09.115-.035.206l3.142 5.961c.026.067.087.105.183.114.119-.01.237-.016.355-.015h.354zm14.286-8.061a.537.537 0 01.42.254c.108.155.143.32.105.498a.612.612 0 01-.302.408.608.608 0 01-.488.058 1.394 1.394 0 00-.29-.096 40.49 40.49 0 00-.322-.102l-.031-.007c-.073-.016-.12.023-.141.117l-1.32 6.062c-.192.886-.517 1.623-.972 2.211a3.573 3.573 0 01-1.672 1.208c-.662.227-1.399.252-2.213.076-.917-.2-1.619-.565-2.104-1.095a3.676 3.676 0 01-.92-1.87 5.769 5.769 0 01.059-2.228l1.32-6.063c.021-.093-.006-.148-.079-.164a3.315 3.315 0 00-.67-.08.66.66 0 01-.436-.258.633.633 0 01-.089-.494.632.632 0 01.287-.413.579.579 0 01.503-.054c.296.097.551.18.765.248a14.584 14.584 0 001.299.282c.234.029.505.06.815.095a.537.537 0 01.419.255.629.629 0 01.089.494.63.63 0 01-.286.412.608.608 0 01-.488.058 2.148 2.148 0 00-.368-.113l-.4-.12-.032-.006c-.073-.016-.118.018-.136.1l-1.327 6.095a8.49 8.49 0 00-.105.631 4.61 4.61 0 00.007.87c.031.311.116.624.255.938.141.304.361.575.658.814.298.24.702.414 1.213.525.521.114.967.123 1.337.029a2.45 2.45 0 00.941-.483 2.74 2.74 0 00.606-.752c.157-.271.275-.535.352-.791.088-.254.148-.453.18-.6l1.327-6.093c.018-.083-.009-.133-.082-.149a6.072 6.072 0 00-.426-.076 4.535 4.535 0 00-.402-.038.633.633 0 01-.419-.255.629.629 0 01-.089-.493.63.63 0 01.286-.413.559.559 0 01.488-.058c.295.097.556.181.781.252a14.063 14.063 0 001.298.282c.234.029.5.06.799.091zm6.867 2.17l2.768.956c1.291.446 2.199 1.087 2.723 1.922.527.825.609 1.762.246 2.81-.265.765-.665 1.332-1.199 1.7-.531.358-1.144.547-1.839.566-.696.02-1.427-.104-2.194-.369l-2.148-.742c-.091-.031-.152-.002-.183.089l-1.105 3.189c-.031.09-.002.151.089.182.148.03.29.061.424.096.145.04.285.076.419.111a.54.54 0 01.387.303c.079.163.089.33.029.501a.614.614 0 01-.328.36.537.537 0 01-.491 0 35.277 35.277 0 01-.766-.332 14.427 14.427 0 00-1.256-.434 35.924 35.924 0 01-.762-.196.579.579 0 01-.401-.308.613.613 0 01-.035-.486.63.63 0 01.333-.375.58.58 0 01.506.005c.141.083.307.157.499.224l.03.01c.071.024.12-.004.148-.084l3.037-8.765c.028-.08.006-.133-.064-.157a2.238 2.238 0 00-.52-.112.646.646 0 01-.432-.319.622.622 0 01-.04-.521.643.643 0 01.359-.4.65.65 0 01.537.016c.191.1.392.203.604.31.215.096.423.18.625.25zm-1.334 5.512c-.032.09-.002.151.089.183l2.284.789c.888.307 1.637.38 2.246.218.623-.169 1.067-.636 1.332-1.401.192-.554.211-1.033.057-1.436-.14-.41-.405-.755-.793-1.035a5.027 5.027 0 00-1.339-.683l-2.284-.79c-.091-.03-.152-.001-.184.09l-1.408 4.065zm25.027 7.254c-.031.056-.019.1.037.13l1.33.738a.91.91 0 01.455.564.907.907 0 01-.082.74c-.332.597-.669 1.191-1.01 1.782a94.784 94.784 0 01-.975 1.654c-.299.517-.567.966-.804 1.347-.222.377-.394.653-.516.83-.364.566-.724.994-1.081 1.284-.356.29-.743.435-1.158.436-.416.002-.906-.148-1.471-.45a.56.56 0 01-.285-.377.643.643 0 01.042-.47.571.571 0 01.356-.279c.16-.045.31-.03.45.048.363.202.653.308.867.317.22 0 .42-.096.601-.289.185-.202.413-.502.684-.9.133-.195.356-.553.67-1.074.314-.52.681-1.147 1.1-1.878.428-.726.869-1.487 1.325-2.283.031-.056.018-.1-.038-.13l-1.049-.583c-.056-.03-.1-.018-.131.038-.834 1.366-1.69 2.489-2.569 3.367-.87.883-1.709 1.558-2.518 2.024-.808.466-1.531.766-2.168.9a.492.492 0 01-.348-.064.551.551 0 01-.295-.457.617.617 0 01.081-.376.62.62 0 01.458-.33 6.292 6.292 0 001.921-.82 9.305 9.305 0 001.707-1.357c.534-.52 1.022-1.08 1.464-1.676.456-.6.866-1.196 1.231-1.786.031-.056.019-.1-.037-.13l-1.134-.63a.572.572 0 01-.278-.355.573.573 0 01.048-.449.538.538 0 01.356-.278c.16-.045.31-.03.45.048l1.147.637c.056.031.1.019.131-.037l1.33-2.39a.6.6 0 01.342-.287.587.587 0 01.463.056.57.57 0 01.279.356.57.57 0 01-.049.449l-1.329 2.39zm-7.385 5.671a.606.606 0 01-.269.253.511.511 0 01-.367.035 22.967 22.967 0 01-1.812-.53c-.659-.22-1.33-.463-2.011-.731a57.852 57.852 0 01-1.95-.807.523.523 0 01-.233-.733.5.5 0 01.305-.252.57.57 0 01.407.025c.337.162.719.332 1.146.508.428.175.874.35 1.339.523.067.012.113-.005.139-.052l.49-.88c.031-.056.018-.1-.038-.13l-1.791-.994a.52.52 0 01-.258-.327.5.5 0 01.039-.399.47.47 0 01.318-.244.526.526 0 01.414.047l1.791.994c.056.03.1.018.131-.038l.264-.475c.032-.056.019-.1-.037-.13l-1.371-.761a.965.965 0 01-.47-.572.97.97 0 01.096-.733l1.322-2.376a.915.915 0 01.565-.455.942.942 0 01.742.082l1.371.761c.056.031.1.019.131-.037l.21-.378c.031-.056.018-.1-.038-.13l-2.295-1.273a.527.527 0 01-.258-.326.523.523 0 01.047-.414.522.522 0 01.326-.257.526.526 0 01.414.046l2.295 1.273c.056.031.1.019.131-.037l.194-.35c.036-.065.021-.104-.045-.116a27.758 27.758 0 01-1.703-.725.586.586 0 01-.314-.357.589.589 0 01.056-.463.482.482 0 01.297-.238.53.53 0 01.408.025c.725.342 1.481.651 2.267.929.8.273 1.599.515 2.398.726.16.04.28.144.359.31a.503.503 0 01-.014.485.615.615 0 01-.291.26.51.51 0 01-.367.034 24.155 24.155 0 01-.942-.248l-.947-.306c-.057-.008-.096.008-.117.045l-.288.517c-.031.056-.018.1.038.13l2.211 1.227a.52.52 0 01.258.326.523.523 0 01-.047.413.522.522 0 01-.326.258.526.526 0 01-.414-.046l-2.211-1.227c-.056-.031-.1-.019-.131.037l-.21.378c-.031.056-.018.1.038.13l1.469.815c.233.13.383.322.448.578a.884.884 0 01-.075.727l-1.322 2.376a.938.938 0 01-.586.462.914.914 0 01-.72-.089l-1.469-.815c-.056-.031-.1-.019-.131.037l-.264.475c-.031.056-.019.1.037.13l1.707.948a.475.475 0 01.245.319.477.477 0 01-.039.399.509.509 0 01-.319.243.475.475 0 01-.4-.038l-1.707-.948c-.056-.03-.1-.018-.131.038l-.389.699c-.036.065-.019.111.052.138.669.2 1.286.366 1.849.495a.252.252 0 01.077.025.297.297 0 01.092.033.479.479 0 01.238.296.508.508 0 01-.054.427zm-.591-6.84c.056.032.1.02.131-.037l.256-.461c.031-.056.019-.1-.037-.13l-1.148-.637c-.056-.031-.099-.019-.13.037l-.257.462c-.031.056-.019.099.037.13l1.148.637zm2.351 1.305c.056.031.1.019.131-.037l.256-.462c.031-.055.019-.099-.037-.13l-1.232-.683c-.055-.031-.099-.019-.13.037l-.257.461c-.031.056-.018.1.038.13l1.231.684zm-4.02-1.004c-.056-.032-.099-.02-.13.037l-.257.461c-.031.056-.018.1.038.13l1.147.637c.056.031.1.019.131-.037l.256-.461c.031-.056.019-.1-.037-.13l-1.148-.637zm2.268 1.257c-.056-.03-.1-.018-.131.038l-.257.46c-.031.057-.018.1.038.131l1.231.683c.056.032.1.02.131-.037l.256-.461c.032-.056.019-.1-.037-.13l-1.231-.684zm20.558 7.859c-.072.04-.074.085-.006.138l3.44 2.691a.89.89 0 01.352.641.89.89 0 01-.188.706 86.94 86.94 0 01-.961 1.199c-.364.446-.745.906-1.143 1.38a97.74 97.74 0 01-2.123 2.524c-.788.9-1.556 1.457-2.306 1.67-.735.21-1.526-.016-2.375-.68a2.508 2.508 0 01-.204-.18 2.54 2.54 0 01-.217-.19.62.62 0 01-.174-.4.615.615 0 01.133-.404.563.563 0 01.463-.227c.19 0 .35.064.48.192l.207.203.201.158c.311.243.604.37.879.383.284.018.584-.079.9-.292.323-.221.699-.57 1.127-1.048.269-.29.573-.635.912-1.033.346-.406.701-.833 1.065-1.28l1.072-1.314c.351-.43.664-.821.941-1.174.039-.05.034-.095-.016-.134l-.114-.09c-.034-.025-.075-.024-.125.005-1.522 1.3-3.169 2.26-4.942 2.878-1.757.615-3.5.85-5.229.703a.355.355 0 01-.153-.039.833.833 0 01-.136-.086.538.538 0 01-.215-.554.666.666 0 01.114-.276.654.654 0 01.608-.256 10.82 10.82 0 004.702-.628c1.506-.555 2.927-1.38 4.261-2.476.046-.06.044-.108-.007-.148l-.541-.424c-.034-.026-.076-.025-.125.004-.563.44-1.15.8-1.762 1.08-.606.27-1.204.48-1.794.628-.576.145-1.118.25-1.628.311a8.95 8.95 0 01-1.279.076.45.45 0 01-.309-.1c-.168-.13-.228-.313-.18-.547a.685.685 0 01.124-.288c.139-.177.348-.27.628-.282a8.33 8.33 0 002.776-.428 9.802 9.802 0 002.421-1.194c.063-.045.065-.091.006-.137l-.769-.601c-.05-.04-.093-.046-.128-.019-.85.323-1.642.53-2.376.619a.482.482 0 01-.367-.104.546.546 0 01-.214-.452.658.658 0 01.133-.403.662.662 0 01.46-.25 8.81 8.81 0 002.202-.654 9.878 9.878 0 002.209-1.34.682.682 0 01.833.001.517.517 0 01.212.43.563.563 0 01-.198.435c-.476.4-.995.759-1.557 1.077zm-5.473 2.544a.715.715 0 01-.348.236.64.64 0 01-.41.004 10.65 10.65 0 00-.429-.153l-.452-.15c-.055-.016-.096-.007-.122.026l-2.686 3.424a.519.519 0 01-.385.207.519.519 0 01-.424-.108.568.568 0 01-.219-.395.542.542 0 01.121-.413l2.468-3.148c.046-.058.034-.102-.038-.132a19.997 19.997 0 01-.895-.415c-.283-.14-.55-.275-.802-.404a.5.5 0 01-.246-.334.503.503 0 01.099-.41.69.69 0 01.888-.199c.26.135.534.268.824.4.298.139.604.276.917.413.055.016.096.007.122-.026l2.262-2.883c.039-.05.034-.095-.017-.135l-.554-.433c-.051-.04-.097-.042-.138-.007-.534.3-1.062.517-1.586.649a.412.412 0 01-.386-.079.544.544 0 01-.209-.407.697.697 0 01.153-.429.86.86 0 01.422-.279 4.537 4.537 0 001.421-.696c.462-.33.885-.696 1.269-1.1a.676.676 0 01.398-.196c.165-.02.31.02.436.118.126.098.199.23.22.395a.434.434 0 01-.134.403 5.17 5.17 0 01-.416.426 4.85 4.85 0 01-.411.37l-.02.024c-.033.042-.024.083.026.122l.24.188c.05.04.095.034.135-.017l1.323-1.686a.599.599 0 01.383-.23c.165-.02.31.02.436.119a.515.515 0 01.206.385.567.567 0 01-.118.435l-1.323 1.687c-.039.05-.034.096.017.135l.604.473c.127.099.2.23.22.395.02.165-.02.31-.119.436a.567.567 0 01-.395.219.569.569 0 01-.436-.118l-.605-.474c-.051-.039-.096-.034-.135.017l-2.024 2.58c-.046.06-.033.103.039.132.103.04.203.078.298.112.111.032.213.065.309.1a.267.267 0 01.073.036c.032.011.06.027.085.047a.482.482 0 01.189.33.514.514 0 01-.121.413z" fill="#171717"/></svg>