<svg width="54" height="34" fill="none" xmlns="http://www.w3.org/2000/svg"><path d="M53 17c0 4.229-2.725 8.205-7.44 11.175C40.855 31.135 34.296 33 27 33c-7.297 0-13.856-1.864-18.56-4.825C3.726 25.205 1 21.229 1 17c0-4.229 2.725-8.205 7.44-11.175C13.145 2.865 19.704 1 27 1c7.297 0 13.856 1.864 18.56 4.825C50.274 8.795 53 12.771 53 17z" fill="#fff"/><path d="M53 17c0 4.229-2.725 8.205-7.44 11.175C40.855 31.135 34.296 33 27 33c-7.297 0-13.856-1.864-18.56-4.825C3.726 25.205 1 21.229 1 17c0-4.229 2.725-8.205 7.44-11.175C13.145 2.865 19.704 1 27 1c7.297 0 13.856 1.864 18.56 4.825C50.274 8.795 53 12.771 53 17z" fill="#fff"/><path d="M53 17c0 4.229-2.725 8.205-7.44 11.175C40.855 31.135 34.296 33 27 33c-7.297 0-13.856-1.864-18.56-4.825C3.726 25.205 1 21.229 1 17c0-4.229 2.725-8.205 7.44-11.175C13.145 2.865 19.704 1 27 1c7.297 0 13.856 1.864 18.56 4.825C50.274 8.795 53 12.771 53 17z" stroke="#000" stroke-width="2"/><path d="M35.366 9.067c-1.825 0-15.718 5.54-22.436 8.31l22.436 7.556" stroke="#000" stroke-width="2"/></svg>