<svg width="36" height="30" fill="none" xmlns="http://www.w3.org/2000/svg"><path d="M36 3.471a14.79 14.79 0 01-4.241 1.163A7.404 7.404 0 0035.006.546a14.746 14.746 0 01-4.69 1.792 7.388 7.388 0 00-12.585 6.738A20.975 20.975 0 012.506 1.358a7.382 7.382 0 00-1 3.713 7.388 7.388 0 003.286 6.149 7.368 7.368 0 01-3.345-.925v.095a7.388 7.388 0 005.925 7.243 7.44 7.44 0 01-3.336.127 7.39 7.39 0 006.9 5.127 14.822 14.822 0 01-9.174 3.163c-.59 0-1.178-.034-1.763-.103a20.889 20.889 0 0011.32 3.319c13.588 0 21.016-11.254 21.016-21.014 0-.317-.008-.638-.022-.955a15.014 15.014 0 003.683-3.82L36 3.47z" fill="#171717"/></svg>