<svg width="351" height="152" fill="none" xmlns="http://www.w3.org/2000/svg"><rect x=".5" y=".5" width="90" height="31" rx="9.5" fill="#fff"/><path d="M30.539 15.208c0 .064.032.096.096.096h3.76c.16 0 .298.059.416.176a.569.569 0 01.176.416.57.57 0 01-.176.416.598.598 0 01-.416.16H25.29a.598.598 0 01-.416-.16.598.598 0 01-.16-.416c0-.16.053-.299.16-.416a.569.569 0 01.416-.176h.944c.064 0 .096-.032.096-.096v-2.944c0-.16.053-.293.16-.4a.569.569 0 01.416-.176.52.52 0 01.4.176.52.52 0 01.176.4v2.944c0 .064.032.096.096.096h1.68c.064 0 .096-.032.096-.096V10.76c0-.17.053-.315.16-.432a.587.587 0 01.432-.176c.16 0 .298.059.416.176a.587.587 0 01.176.432v1.504c0 .064.032.096.096.096h3.072a.52.52 0 01.4.176.52.52 0 01.176.4.57.57 0 01-.176.416.543.543 0 01-.4.16h-3.072c-.064 0-.096.032-.096.096v1.6zm-8.528-3.44a.676.676 0 01-.32-.224.6.6 0 01-.112-.352c0-.17.058-.315.176-.432a.623.623 0 01.432-.176.51.51 0 01.16.032 11.4 11.4 0 012.08.784c.256.128.384.341.384.64 0 .192-.054.341-.16.448a.554.554 0 01-.384.144.506.506 0 01-.256-.064 8.82 8.82 0 00-.944-.432 13.8 13.8 0 00-1.056-.368zm1.68 4.48a13.122 13.122 0 00-.848-.384 7.562 7.562 0 00-.944-.32c-.299-.085-.448-.283-.448-.592 0-.181.058-.325.176-.432a.605.605 0 01.416-.176c.032 0 .058.005.08.016.032 0 .064.005.096.016.31.085.618.192.928.32.32.117.618.245.896.384.266.128.4.347.4.656 0 .043-.006.08-.016.112 0 .032-.006.07-.016.112-.064.235-.219.352-.464.352a.506.506 0 01-.256-.064zm7.424 3.76a.627.627 0 00-.128.048.354.354 0 01-.112.016c-.256 0-.438-.123-.544-.368a.685.685 0 01-.048-.24c0-.256.117-.443.352-.56a10.713 10.713 0 001.472-.864 6.26 6.26 0 001.168-1.072.56.56 0 01.448-.208c.15 0 .272.048.368.144a.644.644 0 01.208.496c0 .15-.048.283-.144.4-.779.875-1.792 1.61-3.04 2.208zm-2.976-.16a5.92 5.92 0 00-1.152-1.008 8.552 8.552 0 00-1.264-.688c-.246-.107-.368-.288-.368-.544 0-.043.005-.08.016-.112a.63.63 0 00.048-.128c.128-.245.325-.368.592-.368a.594.594 0 01.272.064 9.83 9.83 0 011.456.848c.426.299.821.65 1.184 1.056a.663.663 0 01.176.432.7.7 0 01-.176.464.471.471 0 01-.384.176.53.53 0 01-.4-.192zm-3.856-2.32c.181 0 .325.064.432.192a.642.642 0 01.176.448.488.488 0 01-.016.144c-.086.373-.203.79-.352 1.248-.15.459-.315.933-.496 1.424-.17.48-.352.944-.544 1.392-.192.437-.374.827-.544 1.168a.575.575 0 01-.256.272.73.73 0 01-.624.048c-.235-.085-.352-.256-.352-.512 0-.096.021-.181.064-.256.405-.768.778-1.59 1.12-2.464.352-.875.63-1.76.832-2.656a.457.457 0 01.192-.32.572.572 0 01.368-.128zm10.256 5.216c.16.128.24.299.24.512a.73.73 0 01-.112.4.48.48 0 01-.432.224.55.55 0 01-.352-.128 11.462 11.462 0 00-3.088-1.904.577.577 0 01-.384-.576c0-.181.058-.325.176-.432a.578.578 0 01.624-.112 12.167 12.167 0 013.328 2.016zm-6.08-1.888a.491.491 0 01.336-.112.48.48 0 01.432.224.852.852 0 01.096.384.668.668 0 01-.256.544 8.853 8.853 0 01-1.936 1.152c-.726.33-1.494.576-2.304.736a.537.537 0 01-.48-.144.581.581 0 01-.192-.448c0-.15.048-.277.144-.384a.67.67 0 01.368-.208c.704-.15 1.381-.368 2.032-.656a8.134 8.134 0 001.76-1.088zm21.312-6.144a10.448 10.448 0 01-1.472-.88 12.09 12.09 0 01-1.52-1.296 8.875 8.875 0 01-1.232-1.616.507.507 0 01-.064-.256.47.47 0 01.16-.368.64.64 0 01.448-.16c.266 0 .49.133.672.4.341.555.81 1.115 1.408 1.68a8.137 8.137 0 001.984 1.344c.266.128.4.336.4.624a.59.59 0 01-.176.432.506.506 0 01-.496.144.358.358 0 00-.112-.048zm-11.12 0a.565.565 0 01-.224.048.618.618 0 01-.4-.16.607.607 0 01-.176-.448c0-.256.128-.437.384-.544a7.079 7.079 0 001.52-.96c.458-.373.858-.752 1.2-1.136.341-.384.613-.73.816-1.04.138-.203.314-.304.528-.304.181 0 .325.059.432.176.117.117.176.25.176.4a.505.505 0 01-.08.272 7.754 7.754 0 01-1.168 1.504c-.48.48-.987.912-1.52 1.296a9.322 9.322 0 01-1.488.896zm11.76 4.56a11.936 11.936 0 01-1.712-.928c-.587-.384-1.163-.8-1.728-1.248a21.713 21.713 0 01-1.536-1.36c-.459-.47-.838-.901-1.136-1.296-.01-.032-.032-.048-.064-.048-.022 0-.043.016-.064.048-.288.384-.656.8-1.104 1.248a20.68 20.68 0 01-3.248 2.608c-.608.384-1.21.71-1.808.976a.426.426 0 01-.192.048.506.506 0 01-.368-.16.598.598 0 01-.16-.416c0-.31.144-.523.432-.64.48-.224.986-.507 1.52-.848a19.283 19.283 0 001.6-1.184 17.16 17.16 0 001.52-1.376c.47-.48.88-.965 1.232-1.456.15-.213.368-.32.656-.32.117 0 .234.027.352.08a.57.57 0 01.288.24c.416.565.933 1.157 1.552 1.776.63.619 1.312 1.2 2.048 1.744.746.544 1.498.987 2.256 1.328.288.128.432.336.432.624a.59.59 0 01-.176.432.578.578 0 01-.4.16h-.096l-.096-.032zm-3.12 4.544h-6.128a.939.939 0 01-.688-.288.913.913 0 01-.272-.672v-3.728c0-.267.09-.49.272-.672a.939.939 0 01.688-.288h6.128a.89.89 0 01.672.288.887.887 0 01.288.672v3.728c0 .267-.096.49-.288.672a.888.888 0 01-.672.288zm-5.808-4.496c-.064 0-.096.032-.096.096v3.136c0 .064.032.096.096.096h5.488c.064 0 .096-.032.096-.096v-3.136c0-.064-.032-.096-.096-.096h-5.488zm15.376 2.72a.536.536 0 01.464.16.609.609 0 01.208.464c0 .181-.07.33-.208.448a.58.58 0 01-.464.176 31.638 31.638 0 00-.848-.08 18.012 18.012 0 00-1.472 0c-.235.021-.496.048-.784.08a.629.629 0 01-.48-.176.581.581 0 01-.192-.448c0-.181.064-.336.192-.464a.58.58 0 01.48-.16l.384.032.416.032h.032c.074 0 .112-.043.112-.128v-9.36c0-.085-.038-.128-.112-.128-.139 0-.283.005-.432.016-.139.01-.272.027-.4.048a.658.658 0 01-.48-.16.633.633 0 01-.192-.464c0-.181.064-.336.192-.464a.58.58 0 01.48-.16c.31.032.592.059.848.08a15.457 15.457 0 001.456 0c.245-.021.512-.048.8-.08a.536.536 0 01.464.16.609.609 0 01.208.464c0 .181-.07.336-.208.464a.606.606 0 01-.464.16 2.154 2.154 0 00-.384-.032l-.384-.032h-.032c-.075 0-.112.043-.112.128v9.36c0 .085.042.128.128.128.128 0 .256-.005.384-.016a5.84 5.84 0 01.4-.048zm12.684-2.096c.17.15.256.336.256.56 0 .15-.038.277-.112.384a5.898 5.898 0 01-1.984 1.744 5.35 5.35 0 01-2.608.656c-.79 0-1.531-.155-2.224-.464a5.983 5.983 0 01-1.824-1.296 6.235 6.235 0 01-1.232-1.92 6.034 6.034 0 01-.448-2.32c0-.832.149-1.605.448-2.32a6.022 6.022 0 011.232-1.904 5.64 5.64 0 011.824-1.296 5.397 5.397 0 012.224-.464c.8 0 1.504.128 2.112.384a5.293 5.293 0 011.648 1.072c.213.203.405.427.576.672.17.245.256.512.256.8a.993.993 0 01-.288.704.932.932 0 01-.704.304.901.901 0 01-.704-.304 1.004 1.004 0 01-.272-.688.88.88 0 01.16-.528c.053-.085.048-.155-.016-.208a2.74 2.74 0 00-1.248-.784c-.48-.16-.987-.24-1.52-.24-.864 0-1.632.213-2.304.64a4.625 4.625 0 00-1.6 1.728c-.384.715-.576 1.525-.576 2.432s.197 1.717.592 2.432c.394.715.928 1.28 1.6 1.696a4.397 4.397 0 002.288.608 4.41 4.41 0 002.112-.512 4.33 4.33 0 001.552-1.424.54.54 0 01.464-.256c.128 0 .234.037.32.112z" fill="#171717"/><rect x=".5" y=".5" width="90" height="31" rx="9.5" stroke="#F8DC27"/><circle cx="105" cy="16" r="2" fill="#171717"/><circle cx="113" cy="16" r="2" fill="#171717"/><circle cx="121" cy="16" r="2" fill="#171717"/><circle cx="129" cy="16" r="2" fill="#171717"/><circle cx="137" cy="16" r="2" fill="#171717"/><path d="M151.592 20.728c0 .064.032.096.096.096h5.376a.57.57 0 01.416.176.57.57 0 01.176.416.57.57 0 01-.176.416.568.568 0 01-.416.176h-5.376c-.064 0-.096.032-.096.096v1.216a.59.59 0 01-.176.432.586.586 0 01-.432.176.586.586 0 01-.432-.176.589.589 0 01-.176-.432v-1.216c0-.064-.032-.096-.096-.096h-5.344a.568.568 0 01-.416-.176.596.596 0 01-.16-.416c0-.16.053-.299.16-.416a.568.568 0 01.416-.176h5.344c.064 0 .096-.032.096-.096v-.896c0-.064-.032-.096-.096-.096h-2.976a.967.967 0 01-.688-.272.969.969 0 01-.272-.688v-4.112c0-.267.091-.49.272-.672a.938.938 0 01.688-.288h2.976c.064 0 .096-.032.096-.096v-.896c0-.064-.032-.096-.096-.096h-5.024a.568.568 0 01-.416-.176.57.57 0 01-.176-.416c0-.17.059-.31.176-.416a.568.568 0 01.416-.176h5.024c.064 0 .096-.032.096-.096v-.576a.59.59 0 01.176-.432.586.586 0 01.432-.176c.171 0 .315.059.432.176a.589.589 0 01.176.432v.576c0 .064.032.096.096.096h5.056a.57.57 0 01.416.176.537.537 0 01.176.416.57.57 0 01-.176.416.568.568 0 01-.416.176h-5.056c-.064 0-.096.032-.096.096v.896c0 .064.032.096.096.096h3.008c.267 0 .491.096.672.288a.887.887 0 01.288.672v4.112a.939.939 0 01-.288.688.912.912 0 01-.672.272h-3.008c-.064 0-.096.032-.096.096v.896zm-1.296-4.576c.064 0 .096-.032.096-.096v-1.088c0-.064-.032-.096-.096-.096h-2.672c-.064 0-.096.032-.096.096v1.088c0 .064.032.096.096.096h2.672zm1.28-.096c0 .064.032.096.096.096h2.704c.064 0 .096-.032.096-.096v-1.088c0-.064-.032-.096-.096-.096h-2.704c-.064 0-.096.032-.096.096v1.088zm-1.184 1.344c0-.064-.032-.096-.096-.096h-2.672c-.064 0-.096.032-.096.096v1.088c0 .064.032.096.096.096h2.672c.064 0 .096-.032.096-.096V17.4zm1.28-.096c-.064 0-.096.032-.096.096v1.088c0 .064.032.096.096.096h2.704c.064 0 .096-.032.096-.096V17.4c0-.064-.032-.096-.096-.096h-2.704zm19.552 4.432a.264.264 0 01.08-.016.301.301 0 01.096-.016c.149 0 .283.059.4.176.117.107.176.25.176.432a.68.68 0 01-.144.416.546.546 0 01-.352.24 8.148 8.148 0 01-.704.128 4.98 4.98 0 01-.704.048 5.636 5.636 0 01-2.304-.496 4.368 4.368 0 01-1.824-1.536 4.63 4.63 0 01-.528-1.104 4.548 4.548 0 01-.192-1.344c0-.725.176-1.488.528-2.288.352-.81.949-1.6 1.792-2.368.043-.043.064-.08.064-.112 0-.043-.037-.059-.112-.048a26.193 26.193 0 01-3.216.192c-.373 0-.752-.005-1.136-.016a19.73 19.73 0 01-1.12-.064.639.639 0 01-.4-.208.577.577 0 01-.16-.4.56.56 0 01.208-.448.608.608 0 01.464-.176c.8.064 1.573.096 2.32.096 2.549 0 4.864-.373 6.944-1.12a.65.65 0 01.224-.048c.277 0 .469.128.576.384a.603.603 0 01.048.24c0 .267-.128.453-.384.56-.597.213-1.211.4-1.84.56a.817.817 0 00-.16.064c-1.141.715-2.011 1.525-2.608 2.432-.587.907-.88 1.787-.88 2.64 0 .736.219 1.397.656 1.984.395.523.848.885 1.36 1.088a4.31 4.31 0 001.568.304c.437 0 .859-.059 1.264-.176zm2.656-5.84a.52.52 0 01.032.144.42.42 0 01-.4.432c-.181 0-.299-.085-.352-.256a4.7 4.7 0 00-1.168-1.744.338.338 0 01-.112-.272c0-.096.032-.176.096-.24a.415.415 0 01.304-.128c.096 0 .181.032.256.096.32.299.581.603.784.912.203.299.389.65.56 1.056zm-2.624-1.344c.544.512.981 1.152 1.312 1.92a.537.537 0 01.032.16.42.42 0 01-.256.4.526.526 0 01-.16.032.362.362 0 01-.368-.256 4.194 4.194 0 00-1.104-1.648.394.394 0 01-.144-.304c0-.107.032-.192.096-.256a.444.444 0 01.32-.144c.107 0 .197.032.272.096zm10.256.848c.149.31.299.672.448 1.088.149.405.277.81.384 1.216a.406.406 0 01.016.128c0 .16-.059.304-.176.432a.536.536 0 01-.416.176c-.288 0-.469-.144-.544-.432a.973.973 0 00-.048-.16.892.892 0 00-.048-.176c-.011-.053-.048-.075-.112-.064-.139.043-.288.08-.448.112a3.348 3.348 0 00-.448.096c-.053.021-.08.053-.08.096v5.424a.57.57 0 01-.176.416.568.568 0 01-.416.176.586.586 0 01-.432-.176.596.596 0 01-.16-.416V18.12c0-.075-.032-.101-.096-.08-.352.043-.688.08-1.008.112-.32.021-.613.043-.88.064-.192.01-.341-.048-.448-.176a.656.656 0 01-.16-.432.85.85 0 01.08-.352.747.747 0 01.288-.288c.256-.15.501-.325.736-.528.245-.213.48-.443.704-.688.032-.043.032-.085 0-.128a9.507 9.507 0 00-.576-.8 11.316 11.316 0 00-.64-.736.867.867 0 01-.256-.64c0-.256.075-.464.224-.624.267-.31.517-.667.752-1.072.245-.416.432-.853.56-1.312a.58.58 0 01.208-.32.552.552 0 01.352-.128c.171 0 .309.059.416.176.107.107.16.235.16.384a.293.293 0 01-.016.096.254.254 0 01-.016.08c-.139.448-.315.907-.528 1.376-.213.47-.491.907-.832 1.312-.043.043-.043.085 0 .128.171.17.331.347.48.528.149.181.293.368.432.56.021.032.043.048.064.048.032 0 .053-.016.064-.048a11.41 11.41 0 001.488-3.248.537.537 0 01.192-.304.601.601 0 01.352-.112c.171 0 .309.053.416.16a.502.502 0 01.176.384.537.537 0 01-.032.16c-.555 2.048-1.499 3.75-2.832 5.104-.032.032-.043.059-.032.08.021.021.053.027.096.016.309-.043.624-.09.944-.144.331-.053.645-.117.944-.192.064-.021.08-.064.048-.128a1.868 1.868 0 00-.144-.288 2.861 2.861 0 00-.128-.256.64.64 0 01-.08-.272c0-.235.112-.405.336-.512a.725.725 0 01.256-.048c.277 0 .475.123.592.368zm7.728-1.984v2.4c0 .704-.011 1.419-.032 2.144a37.387 37.387 0 01-.144 2.576c-.053.8-.213 1.445-.48 1.936-.256.49-.576.848-.96 1.072a2.406 2.406 0 01-1.232.336c-.181 0-.368-.016-.56-.048a.494.494 0 01-.336-.208.623.623 0 01-.112-.368c0-.235.08-.41.24-.528a.75.75 0 01.56-.128c.053.01.101.016.144.016h.144c.384 0 .683-.139.896-.416.213-.277.357-.757.432-1.44.096-.928.155-1.76.176-2.496.032-.736.048-1.493.048-2.272V13.72c0-.064-.032-.096-.096-.096H184.2c-.064 0-.101.021-.112.064-.235.373-.491.73-.768 1.072a6.975 6.975 0 01-.848.912.476.476 0 01-.352.128.552.552 0 01-.48-.256.623.623 0 01-.112-.368c0-.224.08-.405.24-.544a6.704 6.704 0 001.488-1.952c.363-.725.64-1.413.832-2.064a.587.587 0 01.224-.32.552.552 0 01.352-.128c.181 0 .331.059.448.176a.57.57 0 01.176.416v.08a.174.174 0 01-.016.08c-.053.235-.123.47-.208.704-.085.235-.181.475-.288.72-.032.075-.005.112.08.112h3.408a.93.93 0 01.688.272.99.99 0 01.288.688zm-3.264 6.272c.011.032.016.08.016.144a.57.57 0 01-.176.416.556.556 0 01-.432.176.584.584 0 01-.576-.464 11.196 11.196 0 00-.608-1.68 10.706 10.706 0 00-.8-1.568.54.54 0 01-.096-.304c0-.235.107-.395.32-.48a.906.906 0 01.288-.048c.139 0 .267.032.384.096a.65.65 0 01.272.288c.139.256.293.57.464.944.181.373.357.773.528 1.2.171.427.309.853.416 1.28zm-8.128-.88a.52.52 0 01.448.224.607.607 0 01.144.48c-.085.48-.208.997-.368 1.552-.16.544-.352 1.093-.576 1.648-.128.288-.336.432-.624.432a.536.536 0 01-.416-.176.594.594 0 01-.144-.384c0-.075.016-.144.048-.208.213-.49.395-.992.544-1.504.149-.523.277-1.056.384-1.6a.584.584 0 01.208-.336.552.552 0 01.352-.128zm3.76.432c.075.203.155.459.24.768.096.31.187.624.272.944.085.32.149.603.192.848a.644.644 0 01-.64.752.471.471 0 01-.32-.128.543.543 0 01-.176-.336 9.013 9.013 0 00-.288-1.328c-.139-.48-.283-.853-.432-1.12a.596.596 0 01-.064-.272c0-.117.027-.219.08-.304a.458.458 0 01.256-.192.683.683 0 01.624.064.548.548 0 01.256.304zm16.096-2.112c-.128.032-.128.07 0 .112.629.17 1.141.47 1.536.896.395.416.592 1.03.592 1.84a2.82 2.82 0 01-.544 1.696c-.352.49-.837.88-1.456 1.168-.619.288-1.323.432-2.112.432-1.045 0-1.909-.24-2.592-.72a3.326 3.326 0 01-1.328-1.936 2.824 2.824 0 01-.08-.608c0-.373.091-.688.272-.944.192-.256.459-.384.8-.384.309 0 .549.107.72.32.181.213.272.443.272.688a.979.979 0 01-.144.512.914.914 0 01-.448.368c-.096.032-.128.096-.096.192.139.384.347.677.624.88.277.203.592.341.944.416.352.064.704.096 1.056.096.288 0 .597-.043.928-.128.341-.085.661-.213.96-.384a2.38 2.38 0 00.736-.64c.192-.267.288-.581.288-.944 0-.245-.027-.49-.08-.736a1.436 1.436 0 00-.384-.704c-.203-.224-.523-.41-.96-.56-.427-.15-1.019-.24-1.776-.272a.607.607 0 01-.368-.16.523.523 0 01-.16-.384.47.47 0 01.16-.368.587.587 0 01.384-.176c.821-.043 1.451-.17 1.888-.384.437-.213.736-.475.896-.784.16-.32.24-.645.24-.976 0-.33-.101-.656-.304-.976a2.383 2.383 0 00-.88-.8c-.384-.224-.859-.336-1.424-.336-1.28 0-2.133.443-2.56 1.328a.138.138 0 00-.016.064c0 .053.027.096.08.128a.839.839 0 01.384.384c.085.15.128.31.128.48 0 .235-.085.459-.256.672-.171.203-.411.304-.72.304-.341 0-.603-.123-.784-.368a1.441 1.441 0 01-.272-.88c0-.096.005-.192.016-.288l.064-.288a3.7 3.7 0 01.672-1.28 3.72 3.72 0 011.296-.992c.544-.256 1.2-.384 1.968-.384.651 0 1.216.101 1.696.304.48.203.875.47 1.184.8.32.32.555.672.704 1.056.16.373.24.73.24 1.072 0 .64-.192 1.184-.576 1.632a3.083 3.083 0 01-1.408.944zm5.991-4.432c-.107 0-.16.048-.16.144l-.272 3.424c0 .117.053.16.16.128a9.24 9.24 0 011.216-.224c.384-.053.741-.08 1.072-.08.949 0 1.717.17 2.304.512.597.33 1.035.763 1.312 1.296a3.58 3.58 0 01.432 1.728c0 .405-.091.821-.272 1.248a3.807 3.807 0 01-.832 1.2 4.108 4.108 0 01-1.36.88c-.533.224-1.163.336-1.888.336-.747 0-1.419-.117-2.016-.352a3.76 3.76 0 01-1.44-1.024 3.385 3.385 0 01-.368-.56 1.291 1.291 0 01-.16-.608.93.93 0 01.128-.496.937.937 0 01.864-.496c.309 0 .549.107.72.32.171.203.256.427.256.672a.91.91 0 01-.16.544c-.064.075-.059.144.016.208.256.192.555.347.896.464.341.117.763.176 1.264.176.576 0 1.099-.101 1.568-.304a2.98 2.98 0 001.152-.864 2.01 2.01 0 00.448-1.232c.021-.747-.219-1.355-.72-1.824-.501-.48-1.365-.72-2.592-.72-.448 0-.869.043-1.264.128a9.949 9.949 0 00-1.2.352.901.901 0 01-.208.032.606.606 0 01-.608-.656l.368-4.592c.021-.277.128-.507.32-.688.203-.181.437-.272.704-.272h4.96c.171 0 .315.059.432.176a.589.589 0 01.176.432.57.57 0 01-.176.416.586.586 0 01-.432.176h-4.64zm21.366 2.416c.192.16.288.347.288.56a.74.74 0 01-.112.368.574.574 0 01-.528.304.574.574 0 01-.336-.112 13.709 13.709 0 01-1.648-1.504 20.783 20.783 0 01-1.568-1.904 22.94 22.94 0 01-1.28-1.936.473.473 0 01-.064-.24c0-.117.032-.224.096-.32a.531.531 0 01.272-.192.256.256 0 01.112-.032h.128c.309 0 .538.128.688.384.426.693.944 1.44 1.552 2.24.608.8 1.408 1.595 2.4 2.384zM212.453 16.2a.54.54 0 01-.592.016.477.477 0 01-.192-.24.702.702 0 01-.08-.32c0-.245.112-.453.336-.624a14.664 14.664 0 002.16-2.08c.682-.8 1.253-1.6 1.712-2.4a.665.665 0 01.608-.352c.181 0 .325.059.432.176.106.107.16.235.16.384a.514.514 0 01-.064.256 14.74 14.74 0 01-1.264 1.936 16.78 16.78 0 01-1.552 1.792 13.799 13.799 0 01-1.664 1.456zm2-.368h7.584a.89.89 0 01.672.288.84.84 0 01.272.672 42.892 42.892 0 01-.08 2.048 33.63 33.63 0 01-.16 1.776c-.054.523-.118.95-.192 1.28-.139.661-.427 1.147-.864 1.456-.438.31-1.019.464-1.744.464-.246 0-.512-.016-.8-.048a.553.553 0 01-.384-.224.614.614 0 01-.144-.4c0-.192.069-.347.208-.464a.651.651 0 01.496-.144c.149.021.288.037.416.048.128.01.25.016.368.016.33 0 .602-.064.816-.192.224-.139.373-.4.448-.784.074-.373.149-.96.224-1.76.085-.8.144-1.712.176-2.736 0-.064-.032-.096-.096-.096h-3.072c-.054 0-.091.027-.112.08a8.298 8.298 0 01-1.104 2.944 9.12 9.12 0 01-2.032 2.336c-.8.65-1.67 1.125-2.608 1.424a.301.301 0 01-.096.016.301.301 0 01-.096.016.568.568 0 01-.416-.176.625.625 0 01-.176-.464c0-.33.16-.56.48-.688 1.344-.49 2.41-1.21 3.2-2.16a7.536 7.536 0 001.584-3.216v-.032c0-.053-.032-.08-.096-.08h-2.672a.617.617 0 01-.432-.16.617.617 0 01-.16-.432c0-.17.053-.315.16-.432a.586.586 0 01.432-.176z" fill="#171717"/><circle cx="233" cy="16" r="2" fill="#171717"/><circle cx="241" cy="16" r="2" fill="#171717"/><circle cx="249" cy="16" r="2" fill="#171717"/><circle cx="257" cy="16" r="2" fill="#171717"/><circle cx="265" cy="16" r="2" fill="#171717"/><rect x=".5" y="40.5" width="90" height="31" rx="9.5" fill="#fff"/><path d="M30.539 55.208c0 .064.032.096.096.096h3.76c.16 0 .298.059.416.176a.569.569 0 01.176.416.57.57 0 01-.176.416.598.598 0 01-.416.16H25.29a.598.598 0 01-.416-.16.598.598 0 01-.16-.416c0-.16.053-.299.16-.416a.569.569 0 01.416-.176h.944c.064 0 .096-.032.096-.096v-2.944c0-.16.053-.293.16-.4a.569.569 0 01.416-.176.52.52 0 01.4.176.52.52 0 01.176.4v2.944c0 .064.032.096.096.096h1.68c.064 0 .096-.032.096-.096V50.76c0-.17.053-.315.16-.432a.587.587 0 01.432-.176c.16 0 .298.059.416.176a.587.587 0 01.176.432v1.504c0 .064.032.096.096.096h3.072a.52.52 0 01.4.176.52.52 0 01.176.4.57.57 0 01-.176.416.543.543 0 01-.4.16h-3.072c-.064 0-.096.032-.096.096v1.6zm-8.528-3.44a.676.676 0 01-.32-.224.6.6 0 01-.112-.352c0-.17.058-.315.176-.432a.623.623 0 01.432-.176.51.51 0 01.16.032 11.4 11.4 0 012.08.784c.256.128.384.341.384.64 0 .192-.054.341-.16.448a.554.554 0 01-.384.144.506.506 0 01-.256-.064 8.82 8.82 0 00-.944-.432 13.8 13.8 0 00-1.056-.368zm1.68 4.48a13.122 13.122 0 00-.848-.384 7.562 7.562 0 00-.944-.32c-.299-.085-.448-.283-.448-.592 0-.181.058-.325.176-.432a.605.605 0 01.416-.176c.032 0 .058.005.08.016.032 0 .064.005.096.016.31.085.618.192.928.32.32.117.618.245.896.384.266.128.4.347.4.656 0 .043-.006.08-.016.112 0 .032-.006.07-.016.112-.064.235-.219.352-.464.352a.506.506 0 01-.256-.064zm7.424 3.76a.627.627 0 00-.128.048.354.354 0 01-.112.016c-.256 0-.438-.123-.544-.368a.685.685 0 01-.048-.24c0-.256.117-.443.352-.56a10.713 10.713 0 001.472-.864 6.26 6.26 0 001.168-1.072.56.56 0 01.448-.208c.15 0 .272.048.368.144a.644.644 0 01.208.496c0 .15-.048.283-.144.4-.779.875-1.792 1.61-3.04 2.208zm-2.976-.16a5.92 5.92 0 00-1.152-1.008 8.552 8.552 0 00-1.264-.688c-.246-.107-.368-.288-.368-.544 0-.043.005-.08.016-.112a.63.63 0 00.048-.128c.128-.245.325-.368.592-.368a.594.594 0 01.272.064 9.83 9.83 0 011.456.848c.426.299.821.65 1.184 1.056a.663.663 0 01.176.432.7.7 0 01-.176.464.471.471 0 01-.384.176.53.53 0 01-.4-.192zm-3.856-2.32c.181 0 .325.064.432.192a.642.642 0 01.176.448.488.488 0 01-.016.144c-.086.373-.203.79-.352 1.248-.15.459-.315.933-.496 1.424-.17.48-.352.944-.544 1.392-.192.437-.374.827-.544 1.168a.575.575 0 01-.256.272.73.73 0 01-.624.048c-.235-.085-.352-.256-.352-.512 0-.096.021-.181.064-.256.405-.768.778-1.59 1.12-2.464.352-.875.63-1.76.832-2.656a.457.457 0 01.192-.32.572.572 0 01.368-.128zm10.256 5.216c.16.128.24.299.24.512a.73.73 0 01-.112.4.48.48 0 01-.432.224.55.55 0 01-.352-.128 11.462 11.462 0 00-3.088-1.904.577.577 0 01-.384-.576c0-.181.058-.325.176-.432a.578.578 0 01.624-.112 12.167 12.167 0 013.328 2.016zm-6.08-1.888a.491.491 0 01.336-.112.48.48 0 01.432.224.852.852 0 01.096.384.668.668 0 01-.256.544 8.853 8.853 0 01-1.936 1.152c-.726.33-1.494.576-2.304.736a.537.537 0 01-.48-.144.581.581 0 01-.192-.448c0-.15.048-.277.144-.384a.67.67 0 01.368-.208c.704-.15 1.381-.368 2.032-.656a8.134 8.134 0 001.76-1.088zm21.312-6.144a10.448 10.448 0 01-1.472-.88 12.09 12.09 0 01-1.52-1.296 8.875 8.875 0 01-1.232-1.616.507.507 0 01-.064-.256.47.47 0 01.16-.368.64.64 0 01.448-.16c.266 0 .49.133.672.4.341.555.81 1.115 1.408 1.68a8.137 8.137 0 001.984 1.344c.266.128.4.336.4.624a.59.59 0 01-.176.432.506.506 0 01-.496.144.358.358 0 00-.112-.048zm-11.12 0a.565.565 0 01-.224.048.618.618 0 01-.4-.16.607.607 0 01-.176-.448c0-.256.128-.437.384-.544a7.079 7.079 0 001.52-.96c.458-.373.858-.752 1.2-1.136.341-.384.613-.73.816-1.04.138-.203.314-.304.528-.304.181 0 .325.059.432.176.117.117.176.25.176.4a.505.505 0 01-.08.272 7.754 7.754 0 01-1.168 1.504c-.48.48-.987.912-1.52 1.296a9.322 9.322 0 01-1.488.896zm11.76 4.56a11.936 11.936 0 01-1.712-.928c-.587-.384-1.163-.8-1.728-1.248a21.713 21.713 0 01-1.536-1.36c-.459-.47-.838-.901-1.136-1.296-.01-.032-.032-.048-.064-.048-.022 0-.043.016-.064.048-.288.384-.656.8-1.104 1.248a20.68 20.68 0 01-3.248 2.608c-.608.384-1.21.71-1.808.976a.426.426 0 01-.192.048.506.506 0 01-.368-.16.598.598 0 01-.16-.416c0-.31.144-.523.432-.64.48-.224.986-.507 1.52-.848a19.283 19.283 0 001.6-1.184 17.16 17.16 0 001.52-1.376c.47-.48.88-.965 1.232-1.456.15-.213.368-.32.656-.32.117 0 .234.027.352.08a.57.57 0 01.288.24c.416.565.933 1.157 1.552 1.776.63.619 1.312 1.2 2.048 1.744.746.544 1.498.987 2.256 1.328.288.128.432.336.432.624a.59.59 0 01-.176.432.578.578 0 01-.4.16h-.096l-.096-.032zm-3.12 4.544h-6.128a.939.939 0 01-.688-.288.913.913 0 01-.272-.672v-3.728c0-.267.09-.49.272-.672a.939.939 0 01.688-.288h6.128a.89.89 0 01.672.288.887.887 0 01.288.672v3.728c0 .267-.096.49-.288.672a.888.888 0 01-.672.288zm-5.808-4.496c-.064 0-.096.032-.096.096v3.136c0 .064.032.096.096.096h5.488c.064 0 .096-.032.096-.096v-3.136c0-.064-.032-.096-.096-.096h-5.488zm15.376 2.72a.536.536 0 01.464.16.609.609 0 01.208.464c0 .181-.07.33-.208.448a.58.58 0 01-.464.176 31.638 31.638 0 00-.848-.08 18.012 18.012 0 00-1.472 0c-.235.021-.496.048-.784.08a.629.629 0 01-.48-.176.581.581 0 01-.192-.448c0-.181.064-.336.192-.464a.58.58 0 01.48-.16l.384.032.416.032h.032c.074 0 .112-.043.112-.128v-9.36c0-.085-.038-.128-.112-.128-.139 0-.283.005-.432.016-.139.01-.272.027-.4.048a.658.658 0 01-.48-.16.633.633 0 01-.192-.464c0-.181.064-.336.192-.464a.58.58 0 01.48-.16c.31.032.592.059.848.08a15.457 15.457 0 001.456 0c.245-.021.512-.048.8-.08a.536.536 0 01.464.16.609.609 0 01.208.464c0 .181-.07.336-.208.464a.606.606 0 01-.464.16 2.154 2.154 0 00-.384-.032l-.384-.032h-.032c-.075 0-.112.043-.112.128v9.36c0 .085.042.128.128.128.128 0 .256-.005.384-.016a5.84 5.84 0 01.4-.048zm12.684-2.096c.17.15.256.336.256.56 0 .15-.038.277-.112.384a5.898 5.898 0 01-1.984 1.744 5.35 5.35 0 01-2.608.656c-.79 0-1.531-.155-2.224-.464a5.983 5.983 0 01-1.824-1.296 6.235 6.235 0 01-1.232-1.92 6.034 6.034 0 01-.448-2.32c0-.832.149-1.605.448-2.32a6.022 6.022 0 011.232-1.904 5.64 5.64 0 011.824-1.296 5.397 5.397 0 012.224-.464c.8 0 1.504.128 2.112.384a5.293 5.293 0 011.648 1.072c.213.203.405.427.576.672.17.245.256.512.256.8a.993.993 0 01-.288.704.932.932 0 01-.704.304.901.901 0 01-.704-.304 1.004 1.004 0 01-.272-.688.88.88 0 01.16-.528c.053-.085.048-.155-.016-.208a2.74 2.74 0 00-1.248-.784c-.48-.16-.987-.24-1.52-.24-.864 0-1.632.213-2.304.64a4.625 4.625 0 00-1.6 1.728c-.384.715-.576 1.525-.576 2.432s.197 1.717.592 2.432c.394.715.928 1.28 1.6 1.696a4.397 4.397 0 002.288.608 4.41 4.41 0 002.112-.512 4.33 4.33 0 001.552-1.424.54.54 0 01.464-.256c.128 0 .234.037.32.112z" fill="#171717"/><rect x=".5" y="40.5" width="90" height="31" rx="9.5" stroke="#F8DC27"/><circle cx="105" cy="56" r="2" fill="#171717"/><circle cx="113" cy="56" r="2" fill="#171717"/><circle cx="121" cy="56" r="2" fill="#171717"/><circle cx="129" cy="56" r="2" fill="#171717"/><circle cx="137" cy="56" r="2" fill="#171717"/><path d="M151.592 60.728c0 .064.032.096.096.096h5.376a.57.57 0 01.416.176.57.57 0 01.176.416.57.57 0 01-.176.416.568.568 0 01-.416.176h-5.376c-.064 0-.096.032-.096.096v1.216a.59.59 0 01-.176.432.586.586 0 01-.432.176.586.586 0 01-.432-.176.589.589 0 01-.176-.432v-1.216c0-.064-.032-.096-.096-.096h-5.344a.568.568 0 01-.416-.176.596.596 0 01-.16-.416c0-.16.053-.299.16-.416a.568.568 0 01.416-.176h5.344c.064 0 .096-.032.096-.096v-.896c0-.064-.032-.096-.096-.096h-2.976a.967.967 0 01-.688-.272.969.969 0 01-.272-.688v-4.112c0-.267.091-.49.272-.672a.938.938 0 01.688-.288h2.976c.064 0 .096-.032.096-.096v-.896c0-.064-.032-.096-.096-.096h-5.024a.568.568 0 01-.416-.176.57.57 0 01-.176-.416c0-.17.059-.31.176-.416a.568.568 0 01.416-.176h5.024c.064 0 .096-.032.096-.096v-.576a.59.59 0 01.176-.432.586.586 0 01.432-.176c.171 0 .315.059.432.176a.589.589 0 01.176.432v.576c0 .064.032.096.096.096h5.056a.57.57 0 01.416.176.537.537 0 01.176.416.57.57 0 01-.176.416.568.568 0 01-.416.176h-5.056c-.064 0-.096.032-.096.096v.896c0 .064.032.096.096.096h3.008c.267 0 .491.096.672.288a.887.887 0 01.288.672v4.112a.939.939 0 01-.288.688.912.912 0 01-.672.272h-3.008c-.064 0-.096.032-.096.096v.896zm-1.296-4.576c.064 0 .096-.032.096-.096v-1.088c0-.064-.032-.096-.096-.096h-2.672c-.064 0-.096.032-.096.096v1.088c0 .064.032.096.096.096h2.672zm1.28-.096c0 .064.032.096.096.096h2.704c.064 0 .096-.032.096-.096v-1.088c0-.064-.032-.096-.096-.096h-2.704c-.064 0-.096.032-.096.096v1.088zm-1.184 1.344c0-.064-.032-.096-.096-.096h-2.672c-.064 0-.096.032-.096.096v1.088c0 .064.032.096.096.096h2.672c.064 0 .096-.032.096-.096V57.4zm1.28-.096c-.064 0-.096.032-.096.096v1.088c0 .064.032.096.096.096h2.704c.064 0 .096-.032.096-.096V57.4c0-.064-.032-.096-.096-.096h-2.704zm19.552 4.432a.264.264 0 01.08-.016.301.301 0 01.096-.016c.149 0 .283.059.4.176.117.107.176.25.176.432a.68.68 0 01-.144.416.546.546 0 01-.352.24 8.148 8.148 0 01-.704.128 4.98 4.98 0 01-.704.048 5.636 5.636 0 01-2.304-.496 4.368 4.368 0 01-1.824-1.536 4.63 4.63 0 01-.528-1.104 4.548 4.548 0 01-.192-1.344c0-.725.176-1.488.528-2.288.352-.81.949-1.6 1.792-2.368.043-.043.064-.08.064-.112 0-.043-.037-.059-.112-.048a26.193 26.193 0 01-3.216.192c-.373 0-.752-.005-1.136-.016a19.73 19.73 0 01-1.12-.064.639.639 0 01-.4-.208.577.577 0 01-.16-.4.56.56 0 01.208-.448.608.608 0 01.464-.176c.8.064 1.573.096 2.32.096 2.549 0 4.864-.373 6.944-1.12a.65.65 0 01.224-.048c.277 0 .469.128.576.384a.603.603 0 01.048.24c0 .267-.128.453-.384.56-.597.213-1.211.4-1.84.56a.817.817 0 00-.16.064c-1.141.715-2.011 1.525-2.608 2.432-.587.907-.88 1.787-.88 2.64 0 .736.219 1.397.656 1.984.395.523.848.885 1.36 1.088a4.31 4.31 0 001.568.304c.437 0 .859-.059 1.264-.176zm2.656-5.84a.52.52 0 01.032.144.42.42 0 01-.4.432c-.181 0-.299-.085-.352-.256a4.7 4.7 0 00-1.168-1.744.338.338 0 01-.112-.272c0-.096.032-.176.096-.24a.415.415 0 01.304-.128c.096 0 .181.032.256.096.32.299.581.603.784.912.203.299.389.65.56 1.056zm-2.624-1.344c.544.512.981 1.152 1.312 1.92a.537.537 0 01.032.16.42.42 0 01-.256.4.526.526 0 01-.16.032.362.362 0 01-.368-.256 4.194 4.194 0 00-1.104-1.648.394.394 0 01-.144-.304c0-.107.032-.192.096-.256a.444.444 0 01.32-.144c.107 0 .197.032.272.096zm10.256.848c.149.31.299.672.448 1.088.149.405.277.81.384 1.216a.406.406 0 01.016.128c0 .16-.059.304-.176.432a.536.536 0 01-.416.176c-.288 0-.469-.144-.544-.432a.973.973 0 00-.048-.16.892.892 0 00-.048-.176c-.011-.053-.048-.075-.112-.064-.139.043-.288.08-.448.112a3.348 3.348 0 00-.448.096c-.053.021-.08.053-.08.096v5.424a.57.57 0 01-.176.416.568.568 0 01-.416.176.586.586 0 01-.432-.176.596.596 0 01-.16-.416V58.12c0-.075-.032-.101-.096-.08-.352.043-.688.08-1.008.112-.32.021-.613.043-.88.064-.192.01-.341-.048-.448-.176a.656.656 0 01-.16-.432.85.85 0 01.08-.352.747.747 0 01.288-.288c.256-.15.501-.325.736-.528.245-.213.48-.443.704-.688.032-.043.032-.085 0-.128a9.507 9.507 0 00-.576-.8 11.316 11.316 0 00-.64-.736.867.867 0 01-.256-.64c0-.256.075-.464.224-.624.267-.31.517-.667.752-1.072.245-.416.432-.853.56-1.312a.58.58 0 01.208-.32.552.552 0 01.352-.128c.171 0 .309.059.416.176.107.107.16.235.16.384a.293.293 0 01-.016.096.254.254 0 01-.016.08c-.139.448-.315.907-.528 1.376-.213.47-.491.907-.832 1.312-.043.043-.043.085 0 .128.171.17.331.347.48.528.149.181.293.368.432.56.021.032.043.048.064.048.032 0 .053-.016.064-.048a11.41 11.41 0 001.488-3.248.537.537 0 01.192-.304.601.601 0 01.352-.112c.171 0 .309.053.416.16a.502.502 0 01.176.384.537.537 0 01-.032.16c-.555 2.048-1.499 3.75-2.832 5.104-.032.032-.043.059-.032.08.021.021.053.027.096.016.309-.043.624-.09.944-.144.331-.053.645-.117.944-.192.064-.021.08-.064.048-.128a1.868 1.868 0 00-.144-.288 2.861 2.861 0 00-.128-.256.64.64 0 01-.08-.272c0-.235.112-.405.336-.512a.725.725 0 01.256-.048c.277 0 .475.123.592.368zm7.728-1.984v2.4c0 .704-.011 1.419-.032 2.144a37.387 37.387 0 01-.144 2.576c-.053.8-.213 1.445-.48 1.936-.256.49-.576.848-.96 1.072a2.406 2.406 0 01-1.232.336c-.181 0-.368-.016-.56-.048a.494.494 0 01-.336-.208.623.623 0 01-.112-.368c0-.235.08-.41.24-.528a.75.75 0 01.56-.128c.053.01.101.016.144.016h.144c.384 0 .683-.139.896-.416.213-.277.357-.757.432-1.44.096-.928.155-1.76.176-2.496.032-.736.048-1.493.048-2.272V53.72c0-.064-.032-.096-.096-.096H184.2c-.064 0-.101.021-.112.064-.235.373-.491.73-.768 1.072a6.975 6.975 0 01-.848.912.476.476 0 01-.352.128.552.552 0 01-.48-.256.623.623 0 01-.112-.368c0-.224.08-.405.24-.544a6.704 6.704 0 001.488-1.952c.363-.725.64-1.413.832-2.064a.587.587 0 01.224-.32.552.552 0 01.352-.128c.181 0 .331.059.448.176a.57.57 0 01.176.416v.08a.174.174 0 01-.016.08c-.053.235-.123.47-.208.704-.085.235-.181.475-.288.72-.032.075-.005.112.08.112h3.408a.93.93 0 01.688.272.99.99 0 01.288.688zm-3.264 6.272c.011.032.016.08.016.144a.57.57 0 01-.176.416.556.556 0 01-.432.176.584.584 0 01-.576-.464 11.196 11.196 0 00-.608-1.68 10.706 10.706 0 00-.8-1.568.54.54 0 01-.096-.304c0-.235.107-.395.32-.48a.906.906 0 01.288-.048c.139 0 .267.032.384.096a.65.65 0 01.272.288c.139.256.293.57.464.944.181.373.357.773.528 1.2.171.427.309.853.416 1.28zm-8.128-.88a.52.52 0 01.448.224.607.607 0 01.144.48c-.085.48-.208.997-.368 1.552-.16.544-.352 1.093-.576 1.648-.128.288-.336.432-.624.432a.536.536 0 01-.416-.176.594.594 0 01-.144-.384c0-.075.016-.144.048-.208.213-.49.395-.992.544-1.504.149-.523.277-1.056.384-1.6a.584.584 0 01.208-.336.552.552 0 01.352-.128zm3.76.432c.075.203.155.459.24.768.096.31.187.624.272.944.085.32.149.603.192.848a.644.644 0 01-.64.752.471.471 0 01-.32-.128.543.543 0 01-.176-.336 9.013 9.013 0 00-.288-1.328c-.139-.48-.283-.853-.432-1.12a.596.596 0 01-.064-.272c0-.117.027-.219.08-.304a.458.458 0 01.256-.192.683.683 0 01.624.064.548.548 0 01.256.304zm16.096-2.112c-.128.032-.128.07 0 .112.629.17 1.141.47 1.536.896.395.416.592 1.03.592 1.84a2.82 2.82 0 01-.544 1.696c-.352.49-.837.88-1.456 1.168-.619.288-1.323.432-2.112.432-1.045 0-1.909-.24-2.592-.72a3.326 3.326 0 01-1.328-1.936 2.824 2.824 0 01-.08-.608c0-.373.091-.688.272-.944.192-.256.459-.384.8-.384.309 0 .549.107.72.32.181.213.272.443.272.688a.979.979 0 01-.144.512.914.914 0 01-.448.368c-.096.032-.128.096-.096.192.139.384.347.677.624.88.277.203.592.341.944.416.352.064.704.096 1.056.096.288 0 .597-.043.928-.128.341-.085.661-.213.96-.384a2.38 2.38 0 00.736-.64c.192-.267.288-.581.288-.944 0-.245-.027-.49-.08-.736a1.436 1.436 0 00-.384-.704c-.203-.224-.523-.41-.96-.56-.427-.15-1.019-.24-1.776-.272a.607.607 0 01-.368-.16.523.523 0 01-.16-.384.47.47 0 01.16-.368.587.587 0 01.384-.176c.821-.043 1.451-.17 1.888-.384.437-.213.736-.475.896-.784.16-.32.24-.645.24-.976 0-.33-.101-.656-.304-.976a2.383 2.383 0 00-.88-.8c-.384-.224-.859-.336-1.424-.336-1.28 0-2.133.443-2.56 1.328a.138.138 0 00-.016.064c0 .053.027.096.08.128a.839.839 0 01.384.384c.085.15.128.31.128.48 0 .235-.085.459-.256.672-.171.203-.411.304-.72.304-.341 0-.603-.123-.784-.368a1.441 1.441 0 01-.272-.88c0-.096.005-.192.016-.288l.064-.288a3.7 3.7 0 01.672-1.28 3.72 3.72 0 011.296-.992c.544-.256 1.2-.384 1.968-.384.651 0 1.216.101 1.696.304.48.203.875.47 1.184.8.32.32.555.672.704 1.056.16.373.24.73.24 1.072 0 .64-.192 1.184-.576 1.632a3.083 3.083 0 01-1.408.944zm5.991-4.432c-.107 0-.16.048-.16.144l-.272 3.424c0 .117.053.16.16.128a9.24 9.24 0 011.216-.224c.384-.053.741-.08 1.072-.08.949 0 1.717.17 2.304.512.597.33 1.035.763 1.312 1.296a3.58 3.58 0 01.432 1.728c0 .405-.091.821-.272 1.248a3.807 3.807 0 01-.832 1.2 4.108 4.108 0 01-1.36.88c-.533.224-1.163.336-1.888.336-.747 0-1.419-.117-2.016-.352a3.76 3.76 0 01-1.44-1.024 3.385 3.385 0 01-.368-.56 1.291 1.291 0 01-.16-.608.93.93 0 01.128-.496.937.937 0 01.864-.496c.309 0 .549.107.72.32.171.203.256.427.256.672a.91.91 0 01-.16.544c-.064.075-.059.144.016.208.256.192.555.347.896.464.341.117.763.176 1.264.176.576 0 1.099-.101 1.568-.304a2.98 2.98 0 001.152-.864 2.01 2.01 0 00.448-1.232c.021-.747-.219-1.355-.72-1.824-.501-.48-1.365-.72-2.592-.72-.448 0-.869.043-1.264.128a9.949 9.949 0 00-1.2.352.901.901 0 01-.208.032.606.606 0 01-.608-.656l.368-4.592c.021-.277.128-.507.32-.688.203-.181.437-.272.704-.272h4.96c.171 0 .315.059.432.176a.589.589 0 01.176.432.57.57 0 01-.176.416.586.586 0 01-.432.176h-4.64zm21.366 2.416c.192.16.288.347.288.56a.74.74 0 01-.112.368.574.574 0 01-.528.304.574.574 0 01-.336-.112 13.709 13.709 0 01-1.648-1.504 20.783 20.783 0 01-1.568-1.904 22.94 22.94 0 01-1.28-1.936.473.473 0 01-.064-.24c0-.117.032-.224.096-.32a.531.531 0 01.272-.192.256.256 0 01.112-.032h.128c.309 0 .538.128.688.384.426.693.944 1.44 1.552 2.24.608.8 1.408 1.595 2.4 2.384zM212.453 56.2a.54.54 0 01-.592.016.477.477 0 01-.192-.24.702.702 0 01-.08-.32c0-.245.112-.453.336-.624a14.664 14.664 0 002.16-2.08c.682-.8 1.253-1.6 1.712-2.4a.665.665 0 01.608-.352c.181 0 .325.059.432.176.106.107.16.235.16.384a.514.514 0 01-.064.256 14.74 14.74 0 01-1.264 1.936 16.78 16.78 0 01-1.552 1.792 13.799 13.799 0 01-1.664 1.456zm2-.368h7.584a.89.89 0 01.672.288.84.84 0 01.272.672 42.892 42.892 0 01-.08 2.048 33.63 33.63 0 01-.16 1.776c-.054.523-.118.95-.192 1.28-.139.661-.427 1.147-.864 1.456-.438.31-1.019.464-1.744.464-.246 0-.512-.016-.8-.048a.553.553 0 01-.384-.224.614.614 0 01-.144-.4c0-.192.069-.347.208-.464a.651.651 0 01.496-.144c.149.021.288.037.416.048.128.01.25.016.368.016.33 0 .602-.064.816-.192.224-.139.373-.4.448-.784.074-.373.149-.96.224-1.76.085-.8.144-1.712.176-2.736 0-.064-.032-.096-.096-.096h-3.072c-.054 0-.091.027-.112.08a8.298 8.298 0 01-1.104 2.944 9.12 9.12 0 01-2.032 2.336c-.8.65-1.67 1.125-2.608 1.424a.301.301 0 01-.096.016.301.301 0 01-.096.016.568.568 0 01-.416-.176.625.625 0 01-.176-.464c0-.33.16-.56.48-.688 1.344-.49 2.41-1.21 3.2-2.16a7.536 7.536 0 001.584-3.216v-.032c0-.053-.032-.08-.096-.08h-2.672a.617.617 0 01-.432-.16.617.617 0 01-.16-.432c0-.17.053-.315.16-.432a.586.586 0 01.432-.176z" fill="#171717"/><circle cx="233" cy="56" r="2" fill="#171717"/><circle cx="241" cy="56" r="2" fill="#171717"/><circle cx="249" cy="56" r="2" fill="#171717"/><circle cx="257" cy="56" r="2" fill="#171717"/><circle cx="265" cy="56" r="2" fill="#171717"/><rect x=".5" y="80.5" width="90" height="31" rx="9.5" fill="#fff"/><path d="M30.539 95.208c0 .064.032.096.096.096h3.76c.16 0 .298.059.416.176a.569.569 0 01.176.416.57.57 0 01-.176.416.598.598 0 01-.416.16H25.29a.598.598 0 01-.416-.16.598.598 0 01-.16-.416c0-.16.053-.299.16-.416a.569.569 0 01.416-.176h.944c.064 0 .096-.032.096-.096v-2.944c0-.16.053-.293.16-.4a.569.569 0 01.416-.176.52.52 0 01.4.176.52.52 0 01.176.4v2.944c0 .064.032.096.096.096h1.68c.064 0 .096-.032.096-.096V90.76c0-.17.053-.315.16-.432a.587.587 0 01.432-.176c.16 0 .298.059.416.176a.587.587 0 01.176.432v1.504c0 .064.032.096.096.096h3.072a.52.52 0 01.4.176.52.52 0 01.176.4.57.57 0 01-.176.416.543.543 0 01-.4.16h-3.072c-.064 0-.096.032-.096.096v1.6zm-8.528-3.44a.676.676 0 01-.32-.224.6.6 0 01-.112-.352c0-.17.058-.315.176-.432a.623.623 0 01.432-.176.51.51 0 01.16.032 11.4 11.4 0 012.08.784c.256.128.384.341.384.64 0 .192-.054.341-.16.448a.554.554 0 01-.384.144.506.506 0 01-.256-.064 8.82 8.82 0 00-.944-.432 13.8 13.8 0 00-1.056-.368zm1.68 4.48a13.122 13.122 0 00-.848-.384 7.562 7.562 0 00-.944-.32c-.299-.085-.448-.283-.448-.592 0-.181.058-.325.176-.432a.605.605 0 01.416-.176c.032 0 .058.005.08.016.032 0 .064.005.096.016.31.085.618.192.928.32.32.117.618.245.896.384.266.128.4.347.4.656 0 .043-.006.08-.016.112 0 .032-.006.07-.016.112-.064.235-.219.352-.464.352a.506.506 0 01-.256-.064zm7.424 3.76a.664.664 0 00-.128.048.346.346 0 01-.112.016c-.256 0-.438-.123-.544-.368a.685.685 0 01-.048-.24c0-.256.117-.443.352-.56a10.713 10.713 0 001.472-.864 6.26 6.26 0 001.168-1.072.56.56 0 01.448-.208c.15 0 .272.048.368.144a.644.644 0 01.208.496c0 .15-.048.283-.144.4-.779.875-1.792 1.61-3.04 2.208zm-2.976-.16a5.92 5.92 0 00-1.152-1.008 8.552 8.552 0 00-1.264-.688c-.246-.107-.368-.288-.368-.544 0-.043.005-.08.016-.112a.63.63 0 00.048-.128c.128-.245.325-.368.592-.368a.594.594 0 01.272.064 9.83 9.83 0 011.456.848c.426.299.821.65 1.184 1.056a.663.663 0 01.176.432.7.7 0 01-.176.464.471.471 0 01-.384.176.53.53 0 01-.4-.192zm-3.856-2.32c.181 0 .325.064.432.192a.642.642 0 01.176.448.488.488 0 01-.016.144c-.086.373-.203.79-.352 1.248-.15.459-.315.933-.496 1.424-.17.48-.352.944-.544 1.392-.192.437-.374.827-.544 1.168a.577.577 0 01-.256.272.73.73 0 01-.624.048c-.235-.085-.352-.256-.352-.512 0-.096.021-.181.064-.256.405-.768.778-1.589 1.12-2.464.352-.875.63-1.76.832-2.656a.457.457 0 01.192-.32.572.572 0 01.368-.128zm10.256 5.216c.16.128.24.299.24.512a.73.73 0 01-.112.4.48.48 0 01-.432.224.552.552 0 01-.352-.128 11.462 11.462 0 00-3.088-1.904.577.577 0 01-.384-.576.577.577 0 01.8-.544 12.167 12.167 0 013.328 2.016zm-6.08-1.888a.49.49 0 01.336-.112.48.48 0 01.432.224.852.852 0 01.096.384.668.668 0 01-.256.544 8.853 8.853 0 01-1.936 1.152c-.726.331-1.494.576-2.304.736a.537.537 0 01-.48-.144.581.581 0 01-.192-.448c0-.149.048-.277.144-.384a.667.667 0 01.368-.208 10.252 10.252 0 002.032-.656 8.134 8.134 0 001.76-1.088zm21.312-6.144a10.448 10.448 0 01-1.472-.88 12.09 12.09 0 01-1.52-1.296 8.875 8.875 0 01-1.232-1.616.507.507 0 01-.064-.256.47.47 0 01.16-.368.64.64 0 01.448-.16c.266 0 .49.133.672.4.341.555.81 1.115 1.408 1.68a8.137 8.137 0 001.984 1.344c.266.128.4.336.4.624a.59.59 0 01-.176.432.506.506 0 01-.496.144.358.358 0 00-.112-.048zm-11.12 0a.565.565 0 01-.224.048.618.618 0 01-.4-.16.607.607 0 01-.176-.448c0-.256.128-.437.384-.544a7.079 7.079 0 001.52-.96c.458-.373.858-.752 1.2-1.136.341-.384.613-.73.816-1.04.138-.203.314-.304.528-.304.181 0 .325.059.432.176.117.117.176.25.176.4a.505.505 0 01-.08.272 7.754 7.754 0 01-1.168 1.504c-.48.48-.987.912-1.52 1.296a9.322 9.322 0 01-1.488.896zm11.76 4.56a11.936 11.936 0 01-1.712-.928c-.587-.384-1.163-.8-1.728-1.248a21.713 21.713 0 01-1.536-1.36c-.459-.47-.838-.901-1.136-1.296-.01-.032-.032-.048-.064-.048-.022 0-.043.016-.064.048-.288.384-.656.8-1.104 1.248a20.68 20.68 0 01-3.248 2.608c-.608.384-1.21.71-1.808.976a.426.426 0 01-.192.048.506.506 0 01-.368-.16.598.598 0 01-.16-.416c0-.31.144-.523.432-.64.48-.224.986-.507 1.52-.848a19.283 19.283 0 001.6-1.184 17.16 17.16 0 001.52-1.376c.47-.48.88-.965 1.232-1.456.15-.213.368-.32.656-.32.117 0 .234.027.352.08a.57.57 0 01.288.24c.416.565.933 1.157 1.552 1.776.63.619 1.312 1.2 2.048 1.744.746.544 1.498.987 2.256 1.328.288.128.432.336.432.624a.59.59 0 01-.176.432.578.578 0 01-.4.16h-.096l-.096-.032zm-3.12 4.544h-6.128a.939.939 0 01-.688-.288.912.912 0 01-.272-.672v-3.728c0-.267.09-.49.272-.672a.939.939 0 01.688-.288h6.128a.89.89 0 01.672.288.887.887 0 01.288.672v3.728a.886.886 0 01-.288.672.888.888 0 01-.672.288zm-5.808-4.496c-.064 0-.096.032-.096.096v3.136c0 .064.032.096.096.096h5.488c.064 0 .096-.032.096-.096v-3.136c0-.064-.032-.096-.096-.096h-5.488zm15.376 2.72a.537.537 0 01.464.16.61.61 0 01.208.464c0 .181-.07.331-.208.448a.58.58 0 01-.464.176 30.447 30.447 0 00-.848-.08 17.51 17.51 0 00-1.472 0 37.32 37.32 0 00-.784.08.627.627 0 01-.48-.176.581.581 0 01-.192-.448c0-.181.064-.336.192-.464a.58.58 0 01.48-.16c.117.011.245.021.384.032l.416.032h.032c.074 0 .112-.043.112-.128v-9.36c0-.085-.038-.128-.112-.128-.139 0-.283.005-.432.016-.139.01-.272.027-.4.048a.658.658 0 01-.48-.16.633.633 0 01-.192-.464c0-.181.064-.336.192-.464a.58.58 0 01.48-.16c.31.032.592.059.848.08a15.457 15.457 0 001.456 0c.245-.021.512-.048.8-.08a.536.536 0 01.464.16.609.609 0 01.208.464c0 .181-.07.336-.208.464a.606.606 0 01-.464.16 2.154 2.154 0 00-.384-.032l-.384-.032h-.032c-.075 0-.112.043-.112.128v9.36c0 .085.042.128.128.128.128 0 .256-.005.384-.016.138-.021.272-.037.4-.048zm12.684-2.096c.17.149.256.336.256.56a.654.654 0 01-.112.384 5.898 5.898 0 01-1.984 1.744c-.8.437-1.67.656-2.608.656-.79 0-1.531-.155-2.224-.464a5.983 5.983 0 01-1.824-1.296 6.242 6.242 0 01-1.232-1.92 6.034 6.034 0 01-.448-2.32c0-.832.149-1.605.448-2.32a6.022 6.022 0 011.232-1.904 5.64 5.64 0 011.824-1.296 5.397 5.397 0 012.224-.464c.8 0 1.504.128 2.112.384a5.293 5.293 0 011.648 1.072c.213.203.405.427.576.672.17.245.256.512.256.8a.993.993 0 01-.288.704.932.932 0 01-.704.304.901.901 0 01-.704-.304 1.004 1.004 0 01-.272-.688.88.88 0 01.16-.528c.053-.085.048-.155-.016-.208a2.74 2.74 0 00-1.248-.784c-.48-.16-.987-.24-1.52-.24-.864 0-1.632.213-2.304.64a4.625 4.625 0 00-1.6 1.728c-.384.715-.576 1.525-.576 2.432s.197 1.717.592 2.432a4.53 4.53 0 001.6 1.696 4.4 4.4 0 002.288.608 4.42 4.42 0 002.112-.512 4.334 4.334 0 001.552-1.424.54.54 0 01.464-.256c.128 0 .234.037.32.112z" fill="#171717"/><rect x=".5" y="80.5" width="90" height="31" rx="9.5" stroke="#F8DC27"/><circle cx="105" cy="96" r="2" fill="#171717"/><circle cx="113" cy="96" r="2" fill="#171717"/><circle cx="121" cy="96" r="2" fill="#171717"/><circle cx="129" cy="96" r="2" fill="#171717"/><circle cx="137" cy="96" r="2" fill="#171717"/><path d="M151.592 100.728c0 .064.032.096.096.096h5.376a.57.57 0 01.416.176.57.57 0 01.176.416.57.57 0 01-.176.416.57.57 0 01-.416.176h-5.376c-.064 0-.096.032-.096.096v1.216a.588.588 0 01-.176.432.588.588 0 01-.432.176.588.588 0 01-.432-.176.588.588 0 01-.176-.432v-1.216c0-.064-.032-.096-.096-.096h-5.344a.57.57 0 01-.416-.176.596.596 0 01-.16-.416c0-.16.053-.299.16-.416a.57.57 0 01.416-.176h5.344c.064 0 .096-.032.096-.096v-.896c0-.064-.032-.096-.096-.096h-2.976a.967.967 0 01-.688-.272.969.969 0 01-.272-.688v-4.112c0-.267.091-.49.272-.672a.938.938 0 01.688-.288h2.976c.064 0 .096-.032.096-.096v-.896c0-.064-.032-.096-.096-.096h-5.024a.568.568 0 01-.416-.176.57.57 0 01-.176-.416c0-.17.059-.31.176-.416a.568.568 0 01.416-.176h5.024c.064 0 .096-.032.096-.096v-.576a.59.59 0 01.176-.432.586.586 0 01.432-.176c.171 0 .315.059.432.176a.589.589 0 01.176.432v.576c0 .064.032.096.096.096h5.056a.57.57 0 01.416.176.537.537 0 01.176.416.57.57 0 01-.176.416.568.568 0 01-.416.176h-5.056c-.064 0-.096.032-.096.096v.896c0 .064.032.096.096.096h3.008c.267 0 .491.096.672.288a.887.887 0 01.288.672v4.112a.939.939 0 01-.288.688.912.912 0 01-.672.272h-3.008c-.064 0-.096.032-.096.096v.896zm-1.296-4.576c.064 0 .096-.032.096-.096v-1.088c0-.064-.032-.096-.096-.096h-2.672c-.064 0-.096.032-.096.096v1.088c0 .064.032.096.096.096h2.672zm1.28-.096c0 .064.032.096.096.096h2.704c.064 0 .096-.032.096-.096v-1.088c0-.064-.032-.096-.096-.096h-2.704c-.064 0-.096.032-.096.096v1.088zm-1.184 1.344c0-.064-.032-.096-.096-.096h-2.672c-.064 0-.096.032-.096.096v1.088c0 .064.032.096.096.096h2.672c.064 0 .096-.032.096-.096V97.4zm1.28-.096c-.064 0-.096.032-.096.096v1.088c0 .064.032.096.096.096h2.704c.064 0 .096-.032.096-.096V97.4c0-.064-.032-.096-.096-.096h-2.704zm19.552 4.432a.255.255 0 01.08-.016.293.293 0 01.096-.016c.149 0 .283.059.4.176a.557.557 0 01.176.432.68.68 0 01-.144.416.546.546 0 01-.352.24 8.264 8.264 0 01-.704.128 4.98 4.98 0 01-.704.048 5.631 5.631 0 01-2.304-.496 4.373 4.373 0 01-1.824-1.536 4.63 4.63 0 01-.528-1.104 4.548 4.548 0 01-.192-1.344c0-.725.176-1.488.528-2.288.352-.81.949-1.6 1.792-2.368.043-.043.064-.08.064-.112 0-.043-.037-.059-.112-.048a26.193 26.193 0 01-3.216.192c-.373 0-.752-.005-1.136-.016a19.73 19.73 0 01-1.12-.064.639.639 0 01-.4-.208.577.577 0 01-.16-.4.56.56 0 01.208-.448.608.608 0 01.464-.176c.8.064 1.573.096 2.32.096 2.549 0 4.864-.373 6.944-1.12a.65.65 0 01.224-.048c.277 0 .469.128.576.384a.603.603 0 01.048.24c0 .267-.128.453-.384.56-.597.213-1.211.4-1.84.56a.817.817 0 00-.16.064c-1.141.715-2.011 1.525-2.608 2.432-.587.907-.88 1.787-.88 2.64 0 .736.219 1.397.656 1.984.395.523.848.885 1.36 1.088a4.303 4.303 0 001.568.304c.437 0 .859-.059 1.264-.176zm2.656-5.84a.52.52 0 01.032.144.42.42 0 01-.4.432c-.181 0-.299-.085-.352-.256a4.7 4.7 0 00-1.168-1.744.338.338 0 01-.112-.272c0-.096.032-.176.096-.24a.415.415 0 01.304-.128c.096 0 .181.032.256.096.32.299.581.603.784.912.203.299.389.65.56 1.056zm-2.624-1.344c.544.512.981 1.152 1.312 1.92a.537.537 0 01.032.16.42.42 0 01-.256.4.526.526 0 01-.16.032.362.362 0 01-.368-.256 4.194 4.194 0 00-1.104-1.648.394.394 0 01-.144-.304c0-.107.032-.192.096-.256a.444.444 0 01.32-.144c.107 0 .197.032.272.096zm10.256.848c.149.31.299.672.448 1.088.149.405.277.81.384 1.216a.406.406 0 01.016.128c0 .16-.059.304-.176.432a.536.536 0 01-.416.176c-.288 0-.469-.144-.544-.432a.973.973 0 00-.048-.16.892.892 0 00-.048-.176c-.011-.053-.048-.075-.112-.064-.139.043-.288.08-.448.112a3.348 3.348 0 00-.448.096c-.053.021-.08.053-.08.096v5.424a.57.57 0 01-.176.416.57.57 0 01-.416.176.588.588 0 01-.432-.176.596.596 0 01-.16-.416V98.12c0-.075-.032-.101-.096-.08-.352.043-.688.08-1.008.112-.32.021-.613.043-.88.064-.192.01-.341-.048-.448-.176a.656.656 0 01-.16-.432.85.85 0 01.08-.352.747.747 0 01.288-.288c.256-.15.501-.325.736-.528.245-.213.48-.443.704-.688.032-.043.032-.085 0-.128a9.507 9.507 0 00-.576-.8 11.316 11.316 0 00-.64-.736.867.867 0 01-.256-.64c0-.256.075-.464.224-.624.267-.31.517-.667.752-1.072.245-.416.432-.853.56-1.312a.58.58 0 01.208-.32.552.552 0 01.352-.128c.171 0 .309.059.416.176.107.107.16.235.16.384a.293.293 0 01-.016.096.254.254 0 01-.016.08c-.139.448-.315.907-.528 1.376-.213.47-.491.907-.832 1.312-.043.043-.043.085 0 .128.171.17.331.347.48.528.149.181.293.368.432.56.021.032.043.048.064.048.032 0 .053-.016.064-.048a11.41 11.41 0 001.488-3.248.537.537 0 01.192-.304.601.601 0 01.352-.112c.171 0 .309.053.416.16a.502.502 0 01.176.384.537.537 0 01-.032.16c-.555 2.048-1.499 3.75-2.832 5.104-.032.032-.043.059-.032.08.021.021.053.027.096.016.309-.043.624-.09.944-.144.331-.053.645-.117.944-.192.064-.021.08-.064.048-.128a1.868 1.868 0 00-.144-.288 2.861 2.861 0 00-.128-.256.64.64 0 01-.08-.272c0-.235.112-.405.336-.512a.725.725 0 01.256-.048c.277 0 .475.123.592.368zm7.728-1.984v2.4c0 .704-.011 1.419-.032 2.144a37.387 37.387 0 01-.144 2.576c-.053.8-.213 1.445-.48 1.936-.256.491-.576.848-.96 1.072a2.406 2.406 0 01-1.232.336c-.181 0-.368-.016-.56-.048a.494.494 0 01-.336-.208.623.623 0 01-.112-.368c0-.235.08-.411.24-.528a.75.75 0 01.56-.128.711.711 0 00.144.016h.144c.384 0 .683-.139.896-.416.213-.277.357-.757.432-1.44.096-.928.155-1.76.176-2.496.032-.736.048-1.493.048-2.272V93.72c0-.064-.032-.096-.096-.096H184.2c-.064 0-.101.021-.112.064-.235.373-.491.73-.768 1.072a6.975 6.975 0 01-.848.912.476.476 0 01-.352.128.552.552 0 01-.48-.256.623.623 0 01-.112-.368c0-.224.08-.405.24-.544a6.704 6.704 0 001.488-1.952c.363-.725.64-1.413.832-2.064a.587.587 0 01.224-.32.552.552 0 01.352-.128c.181 0 .331.059.448.176a.57.57 0 01.176.416v.08a.174.174 0 01-.016.08c-.053.235-.123.47-.208.704-.085.235-.181.475-.288.72-.032.075-.005.112.08.112h3.408a.93.93 0 01.688.272.99.99 0 01.288.688zm-3.264 6.272c.011.032.016.08.016.144a.57.57 0 01-.176.416.557.557 0 01-.432.176.582.582 0 01-.576-.464 11.196 11.196 0 00-.608-1.68 10.706 10.706 0 00-.8-1.568.54.54 0 01-.096-.304c0-.235.107-.395.32-.48a.906.906 0 01.288-.048c.139 0 .267.032.384.096a.65.65 0 01.272.288c.139.256.293.57.464.944.181.373.357.773.528 1.2.171.427.309.853.416 1.28zm-8.128-.88a.52.52 0 01.448.224.607.607 0 01.144.48c-.085.48-.208.997-.368 1.552-.16.544-.352 1.093-.576 1.648-.128.288-.336.432-.624.432a.537.537 0 01-.416-.176.592.592 0 01-.144-.384c0-.075.016-.144.048-.208.213-.491.395-.992.544-1.504.149-.523.277-1.056.384-1.6a.584.584 0 01.208-.336.552.552 0 01.352-.128zm3.76.432c.075.203.155.459.24.768.096.309.187.624.272.944.085.32.149.603.192.848a.644.644 0 01-.64.752.473.473 0 01-.32-.128.541.541 0 01-.176-.336 9.021 9.021 0 00-.288-1.328c-.139-.48-.283-.853-.432-1.12a.596.596 0 01-.064-.272c0-.117.027-.219.08-.304a.458.458 0 01.256-.192.683.683 0 01.624.064.548.548 0 01.256.304zm16.096-2.112c-.128.032-.128.07 0 .112.629.17 1.141.47 1.536.896.395.416.592 1.03.592 1.84a2.82 2.82 0 01-.544 1.696c-.352.491-.837.88-1.456 1.168-.619.288-1.323.432-2.112.432-1.045 0-1.909-.24-2.592-.72a3.327 3.327 0 01-1.328-1.936 2.824 2.824 0 01-.08-.608c0-.373.091-.688.272-.944.192-.256.459-.384.8-.384.309 0 .549.107.72.32.181.213.272.443.272.688a.979.979 0 01-.144.512.912.912 0 01-.448.368c-.096.032-.128.096-.096.192.139.384.347.677.624.88.277.203.592.341.944.416.352.064.704.096 1.056.096.288 0 .597-.043.928-.128.341-.085.661-.213.96-.384.299-.171.544-.384.736-.64.192-.267.288-.581.288-.944 0-.245-.027-.49-.08-.736a1.436 1.436 0 00-.384-.704c-.203-.224-.523-.41-.96-.56-.427-.15-1.019-.24-1.776-.272a.607.607 0 01-.368-.16.523.523 0 01-.16-.384.47.47 0 01.16-.368.587.587 0 01.384-.176c.821-.043 1.451-.17 1.888-.384.437-.213.736-.475.896-.784.16-.32.24-.645.24-.976 0-.33-.101-.656-.304-.976a2.383 2.383 0 00-.88-.8c-.384-.224-.859-.336-1.424-.336-1.28 0-2.133.443-2.56 1.328a.138.138 0 00-.016.064c0 .053.027.096.08.128a.839.839 0 01.384.384c.085.15.128.31.128.48 0 .235-.085.459-.256.672-.171.203-.411.304-.72.304-.341 0-.603-.123-.784-.368a1.441 1.441 0 01-.272-.88c0-.096.005-.192.016-.288l.064-.288a3.7 3.7 0 01.672-1.28 3.72 3.72 0 011.296-.992c.544-.256 1.2-.384 1.968-.384.651 0 1.216.101 1.696.304.48.203.875.47 1.184.8.32.32.555.672.704 1.056.16.373.24.73.24 1.072 0 .64-.192 1.184-.576 1.632a3.083 3.083 0 01-1.408.944zm5.991-4.432c-.107 0-.16.048-.16.144l-.272 3.424c0 .117.053.16.16.128a9.24 9.24 0 011.216-.224c.384-.053.741-.08 1.072-.08.949 0 1.717.17 2.304.512.597.33 1.035.763 1.312 1.296a3.58 3.58 0 01.432 1.728c0 .405-.091.821-.272 1.248a3.8 3.8 0 01-.832 1.2 4.103 4.103 0 01-1.36.88c-.533.224-1.163.336-1.888.336-.747 0-1.419-.117-2.016-.352a3.76 3.76 0 01-1.44-1.024 3.385 3.385 0 01-.368-.56 1.291 1.291 0 01-.16-.608c0-.192.043-.357.128-.496a.937.937 0 01.864-.496c.309 0 .549.107.72.32.171.203.256.427.256.672a.91.91 0 01-.16.544c-.064.075-.059.144.016.208.256.192.555.347.896.464.341.117.763.176 1.264.176.576 0 1.099-.101 1.568-.304a2.98 2.98 0 001.152-.864 2.01 2.01 0 00.448-1.232c.021-.747-.219-1.355-.72-1.824-.501-.48-1.365-.72-2.592-.72-.448 0-.869.043-1.264.128a9.949 9.949 0 00-1.2.352.901.901 0 01-.208.032.606.606 0 01-.608-.656l.368-4.592c.021-.277.128-.507.32-.688.203-.181.437-.272.704-.272h4.96c.171 0 .315.059.432.176a.589.589 0 01.176.432.57.57 0 01-.176.416.586.586 0 01-.432.176h-4.64zm21.366 2.416c.192.16.288.347.288.56a.74.74 0 01-.112.368.574.574 0 01-.528.304.574.574 0 01-.336-.112 13.709 13.709 0 01-1.648-1.504 20.783 20.783 0 01-1.568-1.904 22.94 22.94 0 01-1.28-1.936.473.473 0 01-.064-.24c0-.117.032-.224.096-.32a.531.531 0 01.272-.192.256.256 0 01.112-.032h.128c.309 0 .538.128.688.384.426.693.944 1.44 1.552 2.24.608.8 1.408 1.595 2.4 2.384zM212.453 96.2a.54.54 0 01-.592.016.477.477 0 01-.192-.24.702.702 0 01-.08-.32c0-.245.112-.453.336-.624a14.664 14.664 0 002.16-2.08c.682-.8 1.253-1.6 1.712-2.4a.665.665 0 01.608-.352c.181 0 .325.059.432.176.106.107.16.235.16.384a.514.514 0 01-.064.256 14.74 14.74 0 01-1.264 1.936 16.78 16.78 0 01-1.552 1.792 13.799 13.799 0 01-1.664 1.456zm2-.368h7.584a.89.89 0 01.672.288.84.84 0 01.272.672 42.892 42.892 0 01-.08 2.048 33.6 33.6 0 01-.16 1.776c-.054.523-.118.949-.192 1.28-.139.661-.427 1.147-.864 1.456-.438.309-1.019.464-1.744.464-.246 0-.512-.016-.8-.048a.552.552 0 01-.384-.224.614.614 0 01-.144-.4c0-.192.069-.347.208-.464a.654.654 0 01.496-.144c.149.021.288.037.416.048.128.011.25.016.368.016.33 0 .602-.064.816-.192.224-.139.373-.4.448-.784.074-.373.149-.96.224-1.76.085-.8.144-1.712.176-2.736 0-.064-.032-.096-.096-.096h-3.072c-.054 0-.091.027-.112.08a8.298 8.298 0 01-1.104 2.944 9.12 9.12 0 01-2.032 2.336 7.916 7.916 0 01-2.608 1.424.293.293 0 01-.096.016.293.293 0 01-.096.016.57.57 0 01-.416-.176.624.624 0 01-.176-.464c0-.331.16-.56.48-.688 1.344-.491 2.41-1.211 3.2-2.16a7.536 7.536 0 001.584-3.216v-.032c0-.053-.032-.08-.096-.08h-2.672a.617.617 0 01-.432-.16.617.617 0 01-.16-.432c0-.17.053-.315.16-.432a.586.586 0 01.432-.176z" fill="#171717"/><circle cx="233" cy="96" r="2" fill="#171717"/><circle cx="241" cy="96" r="2" fill="#171717"/><circle cx="249" cy="96" r="2" fill="#171717"/><circle cx="257" cy="96" r="2" fill="#171717"/><circle cx="265" cy="96" r="2" fill="#171717"/><rect x=".5" y="120.5" width="90" height="31" rx="9.5" fill="#fff"/><path d="M30.539 135.208c0 .064.032.096.096.096h3.76a.57.57 0 01.416.176.568.568 0 01.176.416.57.57 0 01-.176.416.597.597 0 01-.416.16H25.29a.596.596 0 01-.416-.16.597.597 0 01-.16-.416.57.57 0 01.576-.592h.944c.064 0 .096-.032.096-.096v-2.944c0-.16.053-.293.16-.4a.57.57 0 01.416-.176.52.52 0 01.4.176.52.52 0 01.176.4v2.944c0 .064.032.096.096.096h1.68c.064 0 .096-.032.096-.096v-4.448c0-.171.053-.315.16-.432a.589.589 0 01.432-.176.57.57 0 01.416.176.586.586 0 01.176.432v1.504c0 .064.032.096.096.096h3.072a.52.52 0 01.4.176.52.52 0 01.176.4.57.57 0 01-.176.416.541.541 0 01-.4.16h-3.072c-.064 0-.096.032-.096.096v1.6zm-8.528-3.44a.676.676 0 01-.32-.224.601.601 0 01-.112-.352c0-.171.058-.315.176-.432a.625.625 0 01.432-.176.54.54 0 01.16.032c.714.192 1.408.453 2.08.784.256.128.384.341.384.64 0 .192-.054.341-.16.448a.554.554 0 01-.384.144.503.503 0 01-.256-.064 8.94 8.94 0 00-.944-.432 13.8 13.8 0 00-1.056-.368zm1.68 4.48a13.122 13.122 0 00-.848-.384 7.513 7.513 0 00-.944-.32c-.299-.085-.448-.283-.448-.592 0-.181.058-.325.176-.432a.607.607 0 01.416-.176c.032 0 .058.005.08.016.032 0 .064.005.096.016.31.085.618.192.928.32.32.117.618.245.896.384.266.128.4.347.4.656 0 .043-.006.08-.016.112a.476.476 0 01-.016.112c-.064.235-.219.352-.464.352a.503.503 0 01-.256-.064zm7.424 3.76a.664.664 0 00-.128.048.346.346 0 01-.112.016c-.256 0-.438-.123-.544-.368a.683.683 0 01-.048-.24c0-.256.117-.443.352-.56a10.775 10.775 0 001.472-.864 6.25 6.25 0 001.168-1.072.56.56 0 01.448-.208c.15 0 .272.048.368.144a.644.644 0 01.208.496.614.614 0 01-.144.4c-.779.875-1.792 1.611-3.04 2.208zm-2.976-.16a5.941 5.941 0 00-1.152-1.008 8.525 8.525 0 00-1.264-.688c-.246-.107-.368-.288-.368-.544 0-.043.005-.08.016-.112a.63.63 0 00.048-.128c.128-.245.325-.368.592-.368a.58.58 0 01.272.064c.554.267 1.04.549 1.456.848a6.92 6.92 0 011.184 1.056.664.664 0 01.176.432.7.7 0 01-.176.464.472.472 0 01-.384.176.53.53 0 01-.4-.192zm-3.856-2.32c.181 0 .325.064.432.192a.642.642 0 01.176.448.488.488 0 01-.016.144c-.086.373-.203.789-.352 1.248-.15.459-.315.933-.496 1.424-.17.48-.352.944-.544 1.392-.192.437-.374.827-.544 1.168a.577.577 0 01-.256.272.73.73 0 01-.624.048c-.235-.085-.352-.256-.352-.512 0-.096.021-.181.064-.256.405-.768.778-1.589 1.12-2.464.352-.875.63-1.76.832-2.656a.457.457 0 01.192-.32.574.574 0 01.368-.128zm10.256 5.216c.16.128.24.299.24.512a.73.73 0 01-.112.4.48.48 0 01-.432.224.552.552 0 01-.352-.128 11.462 11.462 0 00-3.088-1.904.577.577 0 01-.384-.576.577.577 0 01.8-.544 12.167 12.167 0 013.328 2.016zm-6.08-1.888a.49.49 0 01.336-.112.48.48 0 01.432.224.852.852 0 01.096.384.668.668 0 01-.256.544 8.853 8.853 0 01-1.936 1.152c-.726.331-1.494.576-2.304.736a.537.537 0 01-.48-.144.581.581 0 01-.192-.448c0-.149.048-.277.144-.384a.667.667 0 01.368-.208 10.252 10.252 0 002.032-.656 8.134 8.134 0 001.76-1.088zm21.312-6.144a10.448 10.448 0 01-1.472-.88 12.04 12.04 0 01-1.52-1.296 8.865 8.865 0 01-1.232-1.616.507.507 0 01-.064-.256c0-.149.053-.272.16-.368a.639.639 0 01.448-.16c.266 0 .49.133.672.4.341.555.81 1.115 1.408 1.68a8.12 8.12 0 001.984 1.344c.266.128.4.336.4.624a.586.586 0 01-.176.432.505.505 0 01-.496.144.372.372 0 00-.112-.048zm-11.12 0a.565.565 0 01-.224.048.617.617 0 01-.4-.16.607.607 0 01-.176-.448c0-.256.128-.437.384-.544a7.102 7.102 0 001.52-.96c.458-.373.858-.752 1.2-1.136.341-.384.613-.731.816-1.04.138-.203.314-.304.528-.304.181 0 .325.059.432.176a.551.551 0 01.176.4.504.504 0 01-.08.272 7.763 7.763 0 01-1.168 1.504c-.48.48-.987.912-1.52 1.296a9.3 9.3 0 01-1.488.896zm11.76 4.56a11.966 11.966 0 01-1.712-.928c-.587-.384-1.163-.8-1.728-1.248a21.637 21.637 0 01-1.536-1.36 13.786 13.786 0 01-1.136-1.296c-.01-.032-.032-.048-.064-.048-.022 0-.043.016-.064.048-.288.384-.656.8-1.104 1.248-.448.448-.95.896-1.504 1.344-.555.448-1.136.869-1.744 1.264-.608.384-1.21.709-1.808.976a.426.426 0 01-.192.048.504.504 0 01-.368-.16.597.597 0 01-.16-.416c0-.309.144-.523.432-.64.48-.224.986-.507 1.52-.848a19.35 19.35 0 001.6-1.184c.544-.437 1.05-.896 1.52-1.376.47-.48.88-.965 1.232-1.456.15-.213.368-.32.656-.32a.85.85 0 01.352.08.572.572 0 01.288.24c.416.565.933 1.157 1.552 1.776.63.619 1.312 1.2 2.048 1.744.746.544 1.498.987 2.256 1.328.288.128.432.336.432.624a.586.586 0 01-.176.432.577.577 0 01-.4.16h-.096l-.096-.032zm-3.12 4.544h-6.128a.939.939 0 01-.688-.288.912.912 0 01-.272-.672v-3.728a.91.91 0 01.272-.672.939.939 0 01.688-.288h6.128a.89.89 0 01.672.288.886.886 0 01.288.672v3.728a.886.886 0 01-.288.672.888.888 0 01-.672.288zm-5.808-4.496c-.064 0-.096.032-.096.096v3.136c0 .064.032.096.096.096h5.488c.064 0 .096-.032.096-.096v-3.136c0-.064-.032-.096-.096-.096h-5.488zm15.376 2.72a.537.537 0 01.464.16.61.61 0 01.208.464c0 .181-.07.331-.208.448a.58.58 0 01-.464.176 30.447 30.447 0 00-.848-.08 17.51 17.51 0 00-1.472 0 37.32 37.32 0 00-.784.08.627.627 0 01-.48-.176.581.581 0 01-.192-.448c0-.181.064-.336.192-.464a.58.58 0 01.48-.16c.117.011.245.021.384.032l.416.032h.032c.074 0 .112-.043.112-.128v-9.36c0-.085-.038-.128-.112-.128a4.83 4.83 0 00-.832.064.658.658 0 01-.48-.16.633.633 0 01-.192-.464c0-.181.064-.336.192-.464a.58.58 0 01.48-.16c.31.032.592.059.848.08a17.507 17.507 0 001.456 0c.245-.021.512-.048.8-.08a.537.537 0 01.464.16.61.61 0 01.208.464.61.61 0 01-.208.464.606.606 0 01-.464.16 2.183 2.183 0 00-.384-.032l-.384-.032h-.032c-.075 0-.112.043-.112.128v9.36c0 .085.042.128.128.128.128 0 .256-.005.384-.016.138-.021.272-.037.4-.048zm12.684-2.096c.17.149.256.336.256.56a.654.654 0 01-.112.384 5.898 5.898 0 01-1.984 1.744c-.8.437-1.67.656-2.608.656-.79 0-1.531-.155-2.224-.464a5.983 5.983 0 01-1.824-1.296 6.242 6.242 0 01-1.232-1.92 6.034 6.034 0 01-.448-2.32c0-.832.149-1.605.448-2.32a6.04 6.04 0 011.232-1.904 5.631 5.631 0 011.824-1.296 5.402 5.402 0 012.224-.464c.8 0 1.504.128 2.112.384a5.288 5.288 0 011.648 1.072c.213.203.405.427.576.672.17.245.256.512.256.8a.993.993 0 01-.288.704.931.931 0 01-.704.304.9.9 0 01-.704-.304 1.005 1.005 0 01-.272-.688.88.88 0 01.16-.528c.053-.085.048-.155-.016-.208a2.74 2.74 0 00-1.248-.784c-.48-.16-.987-.24-1.52-.24-.864 0-1.632.213-2.304.64a4.63 4.63 0 00-1.6 1.728c-.384.715-.576 1.525-.576 2.432s.197 1.717.592 2.432a4.53 4.53 0 001.6 1.696 4.4 4.4 0 002.288.608 4.42 4.42 0 002.112-.512 4.334 4.334 0 001.552-1.424.538.538 0 01.464-.256c.128 0 .234.037.32.112z" fill="#171717"/><rect x=".5" y="120.5" width="90" height="31" rx="9.5" stroke="#F8DC27"/><circle cx="105" cy="136" r="2" fill="#171717"/><circle cx="113" cy="136" r="2" fill="#171717"/><circle cx="121" cy="136" r="2" fill="#171717"/><circle cx="129" cy="136" r="2" fill="#171717"/><circle cx="137" cy="136" r="2" fill="#171717"/><path d="M151.592 140.728c0 .064.032.096.096.096h5.376a.57.57 0 01.416.176.57.57 0 01.176.416.57.57 0 01-.176.416.57.57 0 01-.416.176h-5.376c-.064 0-.096.032-.096.096v1.216a.588.588 0 01-.176.432.588.588 0 01-.432.176.588.588 0 01-.432-.176.588.588 0 01-.176-.432v-1.216c0-.064-.032-.096-.096-.096h-5.344a.57.57 0 01-.416-.176.596.596 0 01-.16-.416c0-.16.053-.299.16-.416a.57.57 0 01.416-.176h5.344c.064 0 .096-.032.096-.096v-.896c0-.064-.032-.096-.096-.096h-2.976a.968.968 0 01-.688-.272.968.968 0 01-.272-.688v-4.112c0-.267.091-.491.272-.672a.938.938 0 01.688-.288h2.976c.064 0 .096-.032.096-.096v-.896c0-.064-.032-.096-.096-.096h-5.024a.57.57 0 01-.416-.176.57.57 0 01-.176-.416c0-.171.059-.309.176-.416a.57.57 0 01.416-.176h5.024c.064 0 .096-.032.096-.096v-.576c0-.171.059-.315.176-.432a.588.588 0 01.432-.176c.171 0 .315.059.432.176a.588.588 0 01.176.432v.576c0 .064.032.096.096.096h5.056a.57.57 0 01.416.176.537.537 0 01.176.416.57.57 0 01-.176.416.57.57 0 01-.416.176h-5.056c-.064 0-.096.032-.096.096v.896c0 .064.032.096.096.096h3.008c.267 0 .491.096.672.288a.886.886 0 01.288.672v4.112a.938.938 0 01-.288.688.913.913 0 01-.672.272h-3.008c-.064 0-.096.032-.096.096v.896zm-1.296-4.576c.064 0 .096-.032.096-.096v-1.088c0-.064-.032-.096-.096-.096h-2.672c-.064 0-.096.032-.096.096v1.088c0 .064.032.096.096.096h2.672zm1.28-.096c0 .064.032.096.096.096h2.704c.064 0 .096-.032.096-.096v-1.088c0-.064-.032-.096-.096-.096h-2.704c-.064 0-.096.032-.096.096v1.088zm-1.184 1.344c0-.064-.032-.096-.096-.096h-2.672c-.064 0-.096.032-.096.096v1.088c0 .064.032.096.096.096h2.672c.064 0 .096-.032.096-.096V137.4zm1.28-.096c-.064 0-.096.032-.096.096v1.088c0 .064.032.096.096.096h2.704c.064 0 .096-.032.096-.096V137.4c0-.064-.032-.096-.096-.096h-2.704zm19.552 4.432a.255.255 0 01.08-.016.293.293 0 01.096-.016c.149 0 .283.059.4.176a.557.557 0 01.176.432.68.68 0 01-.144.416.546.546 0 01-.352.24 8.264 8.264 0 01-.704.128 4.98 4.98 0 01-.704.048 5.631 5.631 0 01-2.304-.496 4.373 4.373 0 01-1.824-1.536 4.63 4.63 0 01-.528-1.104 4.548 4.548 0 01-.192-1.344c0-.725.176-1.488.528-2.288.352-.811.949-1.6 1.792-2.368.043-.043.064-.08.064-.112 0-.043-.037-.059-.112-.048a26.193 26.193 0 01-3.216.192c-.373 0-.752-.005-1.136-.016a20.013 20.013 0 01-1.12-.064.639.639 0 01-.4-.208.577.577 0 01-.16-.4.56.56 0 01.208-.448.607.607 0 01.464-.176c.8.064 1.573.096 2.32.096 2.549 0 4.864-.373 6.944-1.12a.65.65 0 01.224-.048c.277 0 .469.128.576.384a.605.605 0 01.048.24c0 .267-.128.453-.384.56-.597.213-1.211.4-1.84.56a.836.836 0 00-.16.064c-1.141.715-2.011 1.525-2.608 2.432-.587.907-.88 1.787-.88 2.64 0 .736.219 1.397.656 1.984.395.523.848.885 1.36 1.088a4.303 4.303 0 001.568.304c.437 0 .859-.059 1.264-.176zm2.656-5.84a.52.52 0 01.032.144.42.42 0 01-.256.4.52.52 0 01-.144.032c-.181 0-.299-.085-.352-.256a4.698 4.698 0 00-1.168-1.744.338.338 0 01-.112-.272c0-.096.032-.176.096-.24a.417.417 0 01.304-.128c.096 0 .181.032.256.096.32.299.581.603.784.912.203.299.389.651.56 1.056zm-2.624-1.344c.544.512.981 1.152 1.312 1.92a.535.535 0 01.032.16.42.42 0 01-.256.4.535.535 0 01-.16.032.362.362 0 01-.368-.256 4.192 4.192 0 00-1.104-1.648.394.394 0 01-.144-.304c0-.107.032-.192.096-.256a.444.444 0 01.32-.144c.107 0 .197.032.272.096zm10.256.848c.149.309.299.672.448 1.088.149.405.277.811.384 1.216a.408.408 0 01.016.128c0 .16-.059.304-.176.432a.537.537 0 01-.416.176c-.288 0-.469-.144-.544-.432a.973.973 0 00-.048-.16.886.886 0 00-.048-.176c-.011-.053-.048-.075-.112-.064-.139.043-.288.08-.448.112a3.257 3.257 0 00-.448.096c-.053.021-.08.053-.08.096v5.424a.57.57 0 01-.176.416.57.57 0 01-.416.176.588.588 0 01-.432-.176.596.596 0 01-.16-.416v-5.216c0-.075-.032-.101-.096-.08-.352.043-.688.08-1.008.112-.32.021-.613.043-.88.064-.192.011-.341-.048-.448-.176a.656.656 0 01-.16-.432.85.85 0 01.08-.352.751.751 0 01.288-.288c.256-.149.501-.325.736-.528.245-.213.48-.443.704-.688.032-.043.032-.085 0-.128a9.507 9.507 0 00-.576-.8 11.237 11.237 0 00-.64-.736.868.868 0 01-.256-.64c0-.256.075-.464.224-.624.267-.309.517-.667.752-1.072.245-.416.432-.853.56-1.312a.579.579 0 01.208-.32.553.553 0 01.352-.128c.171 0 .309.059.416.176.107.107.16.235.16.384a.293.293 0 01-.016.096.255.255 0 01-.016.08c-.139.448-.315.907-.528 1.376a5.677 5.677 0 01-.832 1.312c-.043.043-.043.085 0 .128.171.171.331.347.48.528.149.181.293.368.432.56.021.032.043.048.064.048.032 0 .053-.016.064-.048a11.41 11.41 0 001.488-3.248.538.538 0 01.192-.304.599.599 0 01.352-.112c.171 0 .309.053.416.16a.503.503 0 01.176.384.535.535 0 01-.032.16c-.555 2.048-1.499 3.749-2.832 5.104-.032.032-.043.059-.032.08.021.021.053.027.096.016.309-.043.624-.091.944-.144.331-.053.645-.117.944-.192.064-.021.08-.064.048-.128a1.841 1.841 0 00-.144-.288 2.902 2.902 0 00-.128-.256.64.64 0 01-.08-.272c0-.235.112-.405.336-.512a.725.725 0 01.256-.048c.277 0 .475.123.592.368zm7.728-1.984v2.4c0 .704-.011 1.419-.032 2.144a37.397 37.397 0 01-.144 2.576c-.053.8-.213 1.445-.48 1.936-.256.491-.576.848-.96 1.072a2.406 2.406 0 01-1.232.336c-.181 0-.368-.016-.56-.048a.494.494 0 01-.336-.208.623.623 0 01-.112-.368c0-.235.08-.411.24-.528a.75.75 0 01.56-.128.711.711 0 00.144.016h.144c.384 0 .683-.139.896-.416.213-.277.357-.757.432-1.44.096-.928.155-1.76.176-2.496.032-.736.048-1.493.048-2.272v-2.272c0-.064-.032-.096-.096-.096H184.2c-.064 0-.101.021-.112.064-.235.373-.491.731-.768 1.072a7.014 7.014 0 01-.848.912.477.477 0 01-.352.128.551.551 0 01-.48-.256.623.623 0 01-.112-.368c0-.224.08-.405.24-.544a6.708 6.708 0 001.488-1.952c.363-.725.64-1.413.832-2.064a.587.587 0 01.224-.32.553.553 0 01.352-.128c.181 0 .331.059.448.176a.57.57 0 01.176.416v.08a.173.173 0 01-.016.08 5.858 5.858 0 01-.208.704c-.085.235-.181.475-.288.72-.032.075-.005.112.08.112h3.408c.277 0 .507.091.688.272a.992.992 0 01.288.688zm-3.264 6.272c.011.032.016.08.016.144a.57.57 0 01-.176.416.557.557 0 01-.432.176.582.582 0 01-.576-.464 11.172 11.172 0 00-.608-1.68 10.69 10.69 0 00-.8-1.568.538.538 0 01-.096-.304c0-.235.107-.395.32-.48a.906.906 0 01.288-.048c.139 0 .267.032.384.096a.65.65 0 01.272.288c.139.256.293.571.464.944.181.373.357.773.528 1.2.171.427.309.853.416 1.28zm-8.128-.88a.52.52 0 01.448.224.607.607 0 01.144.48c-.085.48-.208.997-.368 1.552-.16.544-.352 1.093-.576 1.648-.128.288-.336.432-.624.432a.537.537 0 01-.416-.176.592.592 0 01-.144-.384c0-.075.016-.144.048-.208.213-.491.395-.992.544-1.504.149-.523.277-1.056.384-1.6a.582.582 0 01.208-.336.553.553 0 01.352-.128zm3.76.432c.075.203.155.459.24.768.096.309.187.624.272.944.085.32.149.603.192.848a.644.644 0 01-.64.752.473.473 0 01-.32-.128.541.541 0 01-.176-.336 9.021 9.021 0 00-.288-1.328c-.139-.48-.283-.853-.432-1.12a.595.595 0 01-.064-.272c0-.117.027-.219.08-.304a.458.458 0 01.256-.192.683.683 0 01.624.064.55.55 0 01.256.304zm16.096-2.112c-.128.032-.128.069 0 .112.629.171 1.141.469 1.536.896.395.416.592 1.029.592 1.84a2.82 2.82 0 01-.544 1.696c-.352.491-.837.88-1.456 1.168-.619.288-1.323.432-2.112.432-1.045 0-1.909-.24-2.592-.72a3.327 3.327 0 01-1.328-1.936 2.824 2.824 0 01-.08-.608c0-.373.091-.688.272-.944.192-.256.459-.384.8-.384.309 0 .549.107.72.32.181.213.272.443.272.688a.98.98 0 01-.144.512.912.912 0 01-.448.368c-.096.032-.128.096-.096.192.139.384.347.677.624.88.277.203.592.341.944.416.352.064.704.096 1.056.096.288 0 .597-.043.928-.128.341-.085.661-.213.96-.384.299-.171.544-.384.736-.64.192-.267.288-.581.288-.944 0-.245-.027-.491-.08-.736a1.435 1.435 0 00-.384-.704c-.203-.224-.523-.411-.96-.56-.427-.149-1.019-.24-1.776-.272a.609.609 0 01-.368-.16.523.523 0 01-.16-.384c0-.149.053-.272.16-.368a.587.587 0 01.384-.176c.821-.043 1.451-.171 1.888-.384.437-.213.736-.475.896-.784.16-.32.24-.645.24-.976 0-.331-.101-.656-.304-.976a2.38 2.38 0 00-.88-.8c-.384-.224-.859-.336-1.424-.336-1.28 0-2.133.443-2.56 1.328a.138.138 0 00-.016.064c0 .053.027.096.08.128a.839.839 0 01.384.384.953.953 0 01.128.48c0 .235-.085.459-.256.672-.171.203-.411.304-.72.304-.341 0-.603-.123-.784-.368a1.441 1.441 0 01-.272-.88c0-.096.005-.192.016-.288l.064-.288a3.7 3.7 0 01.672-1.28 3.724 3.724 0 011.296-.992c.544-.256 1.2-.384 1.968-.384.651 0 1.216.101 1.696.304.48.203.875.469 1.184.8.32.32.555.672.704 1.056.16.373.24.731.24 1.072 0 .64-.192 1.184-.576 1.632a3.081 3.081 0 01-1.408.944zm5.991-4.432c-.107 0-.16.048-.16.144l-.272 3.424c0 .117.053.16.16.128a9.24 9.24 0 011.216-.224c.384-.053.741-.08 1.072-.08.949 0 1.717.171 2.304.512.597.331 1.035.763 1.312 1.296.288.533.432 1.109.432 1.728 0 .405-.091.821-.272 1.248a3.8 3.8 0 01-.832 1.2 4.103 4.103 0 01-1.36.88c-.533.224-1.163.336-1.888.336-.747 0-1.419-.117-2.016-.352a3.76 3.76 0 01-1.44-1.024 3.385 3.385 0 01-.368-.56 1.291 1.291 0 01-.16-.608c0-.192.043-.357.128-.496a.936.936 0 01.864-.496c.309 0 .549.107.72.32.171.203.256.427.256.672a.91.91 0 01-.16.544c-.064.075-.059.144.016.208.256.192.555.347.896.464.341.117.763.176 1.264.176.576 0 1.099-.101 1.568-.304a2.98 2.98 0 001.152-.864 2.01 2.01 0 00.448-1.232c.021-.747-.219-1.355-.72-1.824-.501-.48-1.365-.72-2.592-.72-.448 0-.869.043-1.264.128a9.949 9.949 0 00-1.2.352.918.918 0 01-.208.032.607.607 0 01-.608-.656l.368-4.592c.021-.277.128-.507.32-.688.203-.181.437-.272.704-.272h4.96c.171 0 .315.059.432.176a.588.588 0 01.176.432.57.57 0 01-.176.416.588.588 0 01-.432.176h-4.64zm21.366 2.416c.192.16.288.347.288.56a.74.74 0 01-.112.368.573.573 0 01-.528.304.572.572 0 01-.336-.112 13.709 13.709 0 01-1.648-1.504 20.742 20.742 0 01-1.568-1.904 22.891 22.891 0 01-1.28-1.936.474.474 0 01-.064-.24c0-.117.032-.224.096-.32a.531.531 0 01.272-.192.26.26 0 01.112-.032h.128c.309 0 .538.128.688.384.426.693.944 1.44 1.552 2.24.608.8 1.408 1.595 2.4 2.384zm-12.608 1.088a.54.54 0 01-.592.016.475.475 0 01-.192-.24.702.702 0 01-.08-.32c0-.245.112-.453.336-.624a14.664 14.664 0 002.16-2.08c.682-.8 1.253-1.6 1.712-2.4a.664.664 0 01.608-.352c.181 0 .325.059.432.176.106.107.16.235.16.384a.515.515 0 01-.064.256 14.674 14.674 0 01-1.264 1.936c-.48.64-.998 1.237-1.552 1.792a13.772 13.772 0 01-1.664 1.456zm2-.368h7.584a.89.89 0 01.672.288.84.84 0 01.272.672 42.876 42.876 0 01-.08 2.048 33.572 33.572 0 01-.16 1.776c-.054.523-.118.949-.192 1.28-.139.661-.427 1.147-.864 1.456-.438.309-1.019.464-1.744.464-.246 0-.512-.016-.8-.048a.552.552 0 01-.384-.224.614.614 0 01-.144-.4c0-.192.069-.347.208-.464a.654.654 0 01.496-.144c.149.021.288.037.416.048.128.011.25.016.368.016.33 0 .602-.064.816-.192.224-.139.373-.4.448-.784.074-.373.149-.96.224-1.76.085-.8.144-1.712.176-2.736 0-.064-.032-.096-.096-.096h-3.072c-.054 0-.091.027-.112.08a8.3 8.3 0 01-1.104 2.944 9.12 9.12 0 01-2.032 2.336 7.916 7.916 0 01-2.608 1.424.293.293 0 01-.096.016.293.293 0 01-.096.016.57.57 0 01-.416-.176.624.624 0 01-.176-.464c0-.331.16-.56.48-.688 1.344-.491 2.41-1.211 3.2-2.16a7.533 7.533 0 001.584-3.216v-.032c0-.053-.032-.08-.096-.08h-2.672a.616.616 0 01-.432-.16.616.616 0 01-.16-.432c0-.171.053-.315.16-.432a.588.588 0 01.432-.176z" fill="#171717"/><circle cx="233" cy="136" r="2" fill="#171717"/><circle cx="241" cy="136" r="2" fill="#171717"/><circle cx="249" cy="136" r="2" fill="#171717"/><circle cx="257" cy="136" r="2" fill="#171717"/><circle cx="265" cy="136" r="2" fill="#171717"/><rect x="293.5" y="1.5" width="34" height="149.938" rx="9.5" fill="#F8DC27" stroke="#171717"/><path d="M317.137 16.056a.348.348 0 01.064.224.4.4 0 01-.192.352.406.406 0 00-.096.048.39.39 0 01-.448-.176c-.17-.256-.368-.528-.592-.816a6.564 6.564 0 00-.656-.736.393.393 0 01-.112-.288.34.34 0 01.112-.272.435.435 0 01.32-.128c.107 0 .198.037.272.112.246.235.48.501.704.8.235.299.443.592.624.88zm-2.576-1.04c.246.235.486.507.72.816.246.31.464.613.656.912a.348.348 0 01.064.224.4.4 0 01-.192.352.32.32 0 01-.208.064.403.403 0 01-.352-.192 12.94 12.94 0 00-.608-.832 5.963 5.963 0 00-.656-.752.417.417 0 01-.128-.304c0-.107.038-.197.112-.272a.384.384 0 01.304-.128c.118 0 .214.037.288.112zm-8.048 2.528a.538.538 0 01-.432-.16.57.57 0 01-.176-.416.61.61 0 01.176-.448.565.565 0 01.432-.192 60.09 60.09 0 011.744-.048c.704-.01 1.424-.016 2.16-.016.598 0 1.174.005 1.728.016.555.01 1.024.027 1.408.048.171.01.31.08.416.208a.585.585 0 01.176.432c0 .17-.058.315-.176.432a.556.556 0 01-.448.16 45.257 45.257 0 00-1.552-.048 111.017 111.017 0 00-3.872 0c-.618 0-1.146.01-1.584.032zm8.816 2.096a.57.57 0 01.416.176.566.566 0 01.176.416.64.64 0 01-.176.448.586.586 0 01-.432.176h-4.016c-.096 0-.144.048-.144.144.011 1.077-.106 1.995-.352 2.752a5.68 5.68 0 01-1.024 1.936 9.35 9.35 0 01-1.552 1.488.49.49 0 01-.336.112.553.553 0 01-.496-.288.703.703 0 01-.096-.336.63.63 0 01.288-.56c.683-.533 1.184-1.067 1.504-1.6a4.557 4.557 0 00.64-1.664c.096-.576.15-1.184.16-1.824 0-.096-.048-.144-.144-.144-.917.01-1.802.032-2.656.064a40.67 40.67 0 00-2.128.128.592.592 0 01-.432-.144.57.57 0 01-.176-.416c0-.181.059-.336.176-.464a.622.622 0 01.432-.208c.48-.032 1.04-.064 1.68-.096.64-.032 1.323-.053 2.048-.064a148.145 148.145 0 014.32-.064c.448 0 .87.005 1.264.016.395 0 .747.005 1.056.016zm-1.664 16.944a.514.514 0 01-.224.064.39.39 0 01-.336-.192c-.17-.256-.368-.528-.592-.816a7.01 7.01 0 00-.64-.752.384.384 0 01-.128-.272c0-.107.038-.197.112-.272a.515.515 0 01.32-.128c.118 0 .214.037.288.112.235.235.464.501.688.8.235.299.448.587.64.864.043.075.064.15.064.224 0 .16-.064.283-.192.368zm-1.2.688a.35.35 0 01-.224.064.403.403 0 01-.352-.192 12.94 12.94 0 00-.608-.832 5.963 5.963 0 00-.656-.752.417.417 0 01-.128-.304c0-.107.038-.197.112-.272a.417.417 0 01.304-.128.41.41 0 01.304.112c.246.235.486.507.72.816.246.31.464.613.656.912a.348.348 0 01.064.224.4.4 0 01-.192.352zm2.928 4.912l-1.28-.768-1.696-1.04c-.608-.373-1.205-.741-1.792-1.104a78.331 78.331 0 01-1.52-1.008 3.11 3.11 0 00-.592-.336 1.197 1.197 0 00-.48-.112c-.202 0-.4.064-.592.192-.192.128-.41.33-.656.608l-1.616 1.744a.606.606 0 01-.48.224.664.664 0 01-.432-.176.607.607 0 01-.224-.48.59.59 0 01.176-.432l1.744-1.888c.384-.405.736-.699 1.056-.88.32-.192.635-.288.944-.288.299 0 .608.075.928.224.32.139.683.347 1.088.624.406.267.886.576 1.44.928.566.352 1.142.715 1.728 1.088a1129.612 1129.612 0 002.912 1.76c.214.117.32.304.32.56a.564.564 0 01-.096.32c-.117.213-.304.32-.56.32a.595.595 0 01-.32-.08zm-.96 11.92c-.469 0-.869-.165-1.2-.496-.33-.33-.496-.73-.496-1.2s.166-.87.496-1.2c.331-.33.731-.496 1.2-.496.47 0 .87.165 1.2.496.331.33.496.73.496 1.2s-.165.87-.496 1.2c-.33.33-.73.496-1.2.496zm0-.64a1 1 0 00.736-.304.993.993 0 00.32-.752.976.976 0 00-.32-.736.977.977 0 00-.736-.32.997.997 0 00-.752.32 1.005 1.005 0 00-.304.736c0 .299.102.55.304.752.203.203.454.304.752.304zm1.248 7.92a.596.596 0 01-.384-.144.643.643 0 01-.208-.4 6.15 6.15 0 00-.64-1.936 9.406 9.406 0 00-1.056-1.6 20.91 20.91 0 00-1.184-1.328 13.842 13.842 0 01-1.024-1.2.598.598 0 01-.128-.352c0-.224.096-.395.288-.512a.732.732 0 01.352-.096c.235 0 .416.09.544.272.288.363.63.757 1.024 1.184.406.416.816.885 1.232 1.408.416.512.79 1.093 1.12 1.744.342.64.582 1.37.72 2.192a.644.644 0 01-.144.528.622.622 0 01-.512.24zm-10.944-.224a.574.574 0 01-.4.144.565.565 0 01-.48-.24.641.641 0 01-.128-.384c0-.213.08-.384.24-.512.747-.63 1.339-1.253 1.776-1.872a9.666 9.666 0 001.024-1.84c.256-.597.47-1.163.64-1.696a.678.678 0 01.224-.336.642.642 0 01.384-.128.56.56 0 01.448.208.614.614 0 01.192.448c0 .032-.01.09-.032.176a14.51 14.51 0 01-.8 2.128c-.32.672-.725 1.333-1.216 1.984-.49.64-1.114 1.28-1.872 1.92zm4.32 12.736a.55.55 0 01-.448.192.633.633 0 01-.464-.192 4.474 4.474 0 00-1.264-.832 6.086 6.086 0 00-1.536-.448.7.7 0 01-.4-.208.6.6 0 01-.16-.416c0-.203.07-.373.208-.512a.6.6 0 01.512-.176 6.227 6.227 0 011.984.624c.64.31 1.158.635 1.552.976a.62.62 0 01.224.496c0 .17-.069.336-.208.496zm-3.536 6.672a.603.603 0 01-.496-.128.562.562 0 01-.224-.464c0-.16.048-.304.144-.432a.739.739 0 01.416-.272c.715-.17 1.488-.421 2.32-.752a17.732 17.732 0 002.528-1.296 18.657 18.657 0 002.496-1.84 15.419 15.419 0 002.256-2.448.609.609 0 01.512-.256c.171 0 .304.043.4.128a.64.64 0 01.256.544c0 .16-.042.299-.128.416a17.303 17.303 0 01-2.064 2.24 19.561 19.561 0 01-2.544 2 19.86 19.86 0 01-2.88 1.584c-.992.437-1.989.763-2.992.976zm8.576 8.784c0 .064.032.096.096.096h1.52a.91.91 0 01.672.272c.192.181.288.41.288.688 0 .683-.005 1.365-.016 2.048-.01.683-.026 1.323-.048 1.92a49.28 49.28 0 01-.048 1.568c-.01.437-.026.763-.048.976-.042.672-.149 1.221-.32 1.648-.17.427-.437.741-.8.944-.362.203-.864.31-1.504.32a.565.565 0 01-.432-.192.65.65 0 01-.192-.432.57.57 0 01.176-.416.57.57 0 01.416-.176c.416 0 .72-.048.912-.144.192-.107.32-.288.384-.544.064-.267.118-.64.16-1.12.022-.235.043-.656.064-1.264.022-.608.038-1.333.048-2.176.022-.843.038-1.723.048-2.64 0-.064-.032-.096-.096-.096h-1.2c-.064 0-.096.032-.096.096-.064 1.6-.266 2.997-.608 4.192-.33 1.195-.736 2.192-1.216 2.992-.48.8-.965 1.413-1.456 1.84a.49.49 0 01-.336.112.554.554 0 01-.48-.256.63.63 0 01-.112-.368c0-.213.08-.384.24-.512a6.267 6.267 0 001.28-1.648 9.29 9.29 0 00.832-2.016c.214-.715.368-1.44.464-2.176.107-.747.176-1.467.208-2.16 0-.064-.032-.096-.096-.096h-1.296a.57.57 0 01-.416-.176.57.57 0 01-.176-.416c0-.17.059-.31.176-.416a.57.57 0 01.416-.176h1.312c.064 0 .096-.032.096-.096v-2.736a.6.6 0 01.16-.416.59.59 0 01.432-.176.57.57 0 01.416.176.566.566 0 01.176.416v2.736zm-3.696 8.544a.598.598 0 01-.112.352.508.508 0 01-.304.208c-.544.15-1.157.288-1.84.416a39.58 39.58 0 01-2.112.336c-.725.096-1.424.176-2.096.24a.52.52 0 01-.56-.528c0-.15.048-.272.144-.368a.573.573 0 01.368-.176c.374-.021.79-.059 1.248-.112a38.96 38.96 0 001.424-.192c.064-.021.096-.059.096-.112v-1.008c0-.064-.032-.096-.096-.096h-2.048a.525.525 0 01-.384-.16.508.508 0 01-.16-.368c0-.15.054-.272.16-.368a.525.525 0 01.384-.16h2.048c.064 0 .096-.032.096-.096v-.544c0-.064-.032-.096-.096-.096h-1.568a.968.968 0 01-.688-.272.969.969 0 01-.272-.688v-2.72c0-.267.091-.49.272-.672a.94.94 0 01.688-.288h1.568c.064 0 .096-.032.096-.096v-.432c0-.064-.032-.096-.096-.096h-2.624a.525.525 0 01-.384-.16.526.526 0 01-.16-.384c0-.15.054-.277.16-.384a.525.525 0 01.384-.16h2.624c.064 0 .096-.032.096-.096v-.4c0-.075-.032-.101-.096-.08a27.113 27.113 0 01-1.84.192.585.585 0 01-.448-.16.589.589 0 01-.176-.432c0-.139.048-.256.144-.352a.527.527 0 01.368-.176c.8-.053 1.611-.15 2.432-.288a35.71 35.71 0 002.448-.528.531.531 0 01.464.096c.15.107.224.25.224.432 0 .128-.042.25-.128.368a.508.508 0 01-.304.208 25.5 25.5 0 01-.944.24c-.32.064-.645.128-.976.192-.053.021-.08.053-.08.096v.592c0 .064.032.096.096.096h2.528a.52.52 0 01.384.16c.107.107.16.235.16.384 0 .15-.053.277-.16.384a.521.521 0 01-.384.16h-2.528c-.064 0-.096.032-.096.096v.432c0 .064.032.096.096.096h1.68c.267 0 .491.096.672.288a.887.887 0 01.288.672v2.72a.939.939 0 01-.288.688.912.912 0 01-.672.272h-1.68c-.064 0-.096.032-.096.096v.544c0 .064.032.096.096.096h1.952a.47.47 0 01.368.16c.107.096.16.219.16.368a.505.505 0 01-.16.368.472.472 0 01-.368.16h-1.952c-.064 0-.096.032-.096.096v.8c0 .075.038.107.112.096a29.22 29.22 0 001.856-.464.264.264 0 01.08-.016.301.301 0 01.096-.016c.139 0 .256.048.352.144a.51.51 0 01.16.4zm-3.84-5.696c.064 0 .096-.032.096-.096v-.528c0-.064-.032-.096-.096-.096h-1.312c-.064 0-.096.032-.096.096v.528c0 .064.032.096.096.096h1.312zm2.688 0c.064 0 .096-.032.096-.096v-.528c0-.064-.032-.096-.096-.096h-1.408c-.064 0-.096.032-.096.096v.528c0 .064.032.096.096.096h1.408zm-4 1.072c-.064 0-.096.032-.096.096v.528c0 .064.032.096.096.096h1.312c.064 0 .096-.032.096-.096v-.528c0-.064-.032-.096-.096-.096h-1.312zm2.592 0c-.064 0-.096.032-.096.096v.528c0 .064.032.096.096.096h1.408c.064 0 .096-.032.096-.096v-.528c0-.064-.032-.096-.096-.096h-1.408zm3.344 13.28c-.032.075-.005.112.08.112h4.368c.267 0 .491.096.672.288a.886.886 0 01.288.672 98.748 98.748 0 01-.064 3.328c-.01.619-.026 1.216-.048 1.792-.021.565-.042 1.067-.064 1.504-.064 1.195-.325 2.107-.784 2.736-.448.619-1.21.928-2.288.928-.085 0-.176-.005-.272-.016-.096 0-.192-.005-.288-.016a.628.628 0 01-.384-.208.614.614 0 01-.144-.4c0-.192.075-.347.224-.464a.656.656 0 01.496-.144c.107.011.203.021.288.032h.256c.395 0 .704-.08.928-.24.235-.16.411-.421.528-.784.118-.373.198-.88.24-1.52.032-.395.059-.853.08-1.376.022-.533.038-1.088.048-1.664l.032-1.696c.011-.555.016-1.056.016-1.504 0-.064-.032-.096-.096-.096h-.144c-.042 0-.074.027-.096.08-.394 1.963-1.098 3.733-2.112 5.312-1.002 1.568-2.229 2.827-3.68 3.776a.348.348 0 01-.144.064.782.782 0 01-.16.016.539.539 0 01-.512-.304.663.663 0 01-.08-.288c0-.245.107-.437.32-.576 1.376-.907 2.48-2.037 3.312-3.392.843-1.365 1.451-2.891 1.824-4.576 0-.075-.032-.112-.096-.112h-.688c-.042 0-.074.027-.096.08a8.665 8.665 0 01-.72 1.936c-.309.587-.65 1.12-1.024 1.6-.362.469-.725.885-1.088 1.248a8.8 8.8 0 01-.96.848.443.443 0 01-.304.112c-.213 0-.373-.107-.48-.32a.687.687 0 01-.08-.304c0-.224.107-.427.32-.608a8.318 8.318 0 001.92-2.048 9.771 9.771 0 001.168-2.432c.022-.075-.005-.112-.08-.112h-.976c-.064 0-.101.021-.112.064-.469.779-.965 1.429-1.488 1.952a.478.478 0 01-.352.144.548.548 0 01-.448-.224.657.657 0 01-.144-.4c0-.181.07-.341.208-.48a8.744 8.744 0 001.328-1.872 9.839 9.839 0 00.912-2.416.725.725 0 01.24-.368.68.68 0 01.416-.144c.182 0 .326.069.432.208a.56.56 0 01.112.464 10.318 10.318 0 01-.56 1.808zm-2.736 5.376a.705.705 0 01-.128.4.635.635 0 01-.32.256c-.138.043-.282.091-.432.144l-.448.16c-.053.021-.08.053-.08.096v4.352c0 .16-.058.293-.176.4a.518.518 0 01-.4.176.571.571 0 01-.416-.176.546.546 0 01-.16-.4v-4c0-.075-.037-.101-.112-.08-.33.085-.65.16-.96.224-.309.064-.602.123-.88.176a.498.498 0 01-.576-.496.692.692 0 01.576-.704c.288-.053.587-.117.896-.192.32-.075.646-.155.976-.24.054-.021.08-.053.08-.096v-3.664c0-.064-.032-.096-.096-.096h-.704c-.064 0-.101.027-.112.08a6.43 6.43 0 01-.848 1.488.411.411 0 01-.352.176.548.548 0 01-.416-.192.702.702 0 01-.144-.432c0-.16.054-.32.16-.48.299-.405.528-.88.688-1.424.16-.544.267-1.093.32-1.648a.683.683 0 01.192-.4.571.571 0 01.416-.176.57.57 0 01.416.176.43.43 0 01.144.4c-.01.203-.032.4-.064.592a4.699 4.699 0 01-.096.544v.032c0 .053.032.08.096.08h.304c.064 0 .096-.032.096-.096v-2.144a.571.571 0 01.576-.592c.16 0 .294.059.4.176a.566.566 0 01.176.416v2.144c0 .064.032.096.096.096h.768a.57.57 0 01.416.176.566.566 0 01.176.416c0 .16-.058.299-.176.416a.57.57 0 01-.416.176h-.768c-.064 0-.096.032-.096.096v3.28c0 .075.038.101.112.08.107-.032.208-.064.304-.096.107-.043.208-.08.304-.112a.255.255 0 01.08-.016.293.293 0 01.096-.016c.139 0 .256.048.352.144.107.096.16.229.16.4zm-3.696 10.48h10.816c.267 0 .491.096.672.288a.886.886 0 01.288.672V134.6a.886.886 0 01-.288.672.886.886 0 01-.672.288h-10.816a.94.94 0 01-.688-.288.913.913 0 01-.272-.672v-11.232c0-.267.091-.491.272-.672a.94.94 0 01.688-.288zm.208 11.888c0 .064.032.096.096.096h10.208c.064 0 .096-.032.096-.096v-10.624c0-.064-.032-.096-.096-.096h-10.208c-.064 0-.096.032-.096.096v10.624zm9.2-6.496h-8a.506.506 0 01-.368-.16.508.508 0 01-.16-.368c0-.149.054-.272.16-.368a.506.506 0 01.368-.16h3.232c.064 0 .096-.032.096-.096v-.496c0-.064-.032-.096-.096-.096h-2.704a.523.523 0 01-.384-.16.534.534 0 01-.144-.368c0-.149.048-.272.144-.368a.523.523 0 01.384-.16h2.704c.064 0 .096-.032.096-.096v-.464c0-.149.054-.277.16-.384a.571.571 0 01.416-.176.5.5 0 01.384.176.5.5 0 01.176.384v.464c0 .064.032.096.096.096h2.912a.52.52 0 01.384.16c.107.096.16.219.16.368a.505.505 0 01-.16.368.52.52 0 01-.384.16h-2.912c-.064 0-.096.032-.096.096v.496c0 .064.032.096.096.096h3.44a.47.47 0 01.368.16c.107.096.16.219.16.368a.505.505 0 01-.16.368.47.47 0 01-.368.16zm-7.968 5.696a.403.403 0 01-.128.016.546.546 0 01-.544-.56c0-.117.038-.224.112-.32a.499.499 0 01.304-.192c.534-.139 1.088-.32 1.664-.544a10.423 10.423 0 001.648-.848c.043-.021.059-.043.048-.064 0-.032-.026-.048-.08-.048h-1.264a.97.97 0 01-.688-.272.968.968 0 01-.272-.688v-.864c0-.267.091-.491.272-.672a.94.94 0 01.688-.288h4.432c.267 0 .491.096.672.288a.886.886 0 01.288.672v.864a.938.938 0 01-.288.688.913.913 0 01-.672.272h-1.056a.155.155 0 00-.112.048l-.064.048c-.053.053-.048.101.016.144.128.085.267.181.416.288l.48.304c.064.021.107.027.128.016.352-.117.683-.267.992-.448a7.69 7.69 0 00.88-.576.61.61 0 01.32-.112c.182 0 .32.075.416.224a.645.645 0 01.096.336c0 .203-.08.363-.24.48a7.598 7.598 0 01-.576.4 6.373 6.373 0 01-.592.32c-.032.011-.048.032-.048.064 0 .021.016.043.048.064.203.085.395.171.576.256.192.085.374.155.544.208.278.085.416.272.416.56a.505.505 0 01-.16.368.442.442 0 01-.32.144.54.54 0 01-.16-.032 15.227 15.227 0 01-1.184-.496 19.62 19.62 0 01-1.312-.672 17.062 17.062 0 01-1.2-.736c-.074-.053-.112-.032-.112.064v1.312c0 .16-.058.299-.176.416a.54.54 0 01-.4.16.598.598 0 01-.416-.16.6.6 0 01-.16-.416v-1.168c0-.085-.032-.112-.096-.08-.437.235-.922.464-1.456.688a12.34 12.34 0 01-1.68.544zm6-4.256c0-.064-.032-.096-.096-.096h-3.888c-.064 0-.096.032-.096.096v.608c0 .064.032.096.096.096h3.888c.064 0 .096-.032.096-.096v-.608z" fill="#171717"/></svg>